<?xml version="1.0" encoding="UTF-8" standalone="no"?>
<!-- Created with Inkscape (http://www.inkscape.org/) -->

<svg
   xmlns:dc="http://purl.org/dc/elements/1.1/"
   xmlns:cc="http://creativecommons.org/ns#"
   xmlns:rdf="http://www.w3.org/1999/02/22-rdf-syntax-ns#"
   xmlns:svg="http://www.w3.org/2000/svg"
   xmlns="http://www.w3.org/2000/svg"
   xmlns:sodipodi="http://sodipodi.sourceforge.net/DTD/sodipodi-0.dtd"
   xmlns:inkscape="http://www.inkscape.org/namespaces/inkscape"
   id="svg2"
   version="1.1"
   inkscape:version="0.91 r13725"
   xml:space="preserve"
   width="396.57251"
   height="225.44125"
   viewBox="0 0 396.57251 225.44125"
   sodipodi:docname="New Tikzfile22.svg"><metadata
     id="metadata8"><rdf:RDF><cc:Work
         rdf:about=""><dc:format>image/svg+xml</dc:format><dc:type
           rdf:resource="http://purl.org/dc/dcmitype/StillImage" /><dc:title></dc:title></cc:Work></rdf:RDF></metadata><defs
     id="defs6" /><sodipodi:namedview
     pagecolor="#ffffff"
     bordercolor="#666666"
     borderopacity="1"
     objecttolerance="10"
     gridtolerance="10"
     guidetolerance="10"
     inkscape:pageopacity="0"
     inkscape:pageshadow="2"
     inkscape:window-width="1366"
     inkscape:window-height="722"
     id="namedview4"
     showgrid="false"
     inkscape:zoom="1.4521233"
     inkscape:cx="214.82861"
     inkscape:cy="104.85379"
     inkscape:window-x="0"
     inkscape:window-y="24"
     inkscape:window-maximized="1"
     inkscape:current-layer="g10" /><g
     id="g10"
     inkscape:groupmode="layer"
     inkscape:label="New Tikzfile22"
     transform="matrix(1.25,0,0,-1.25,68.47125,199.90375)"><g
       id="g16" /><g
       id="g18" /><g
       id="g20" /><g
       id="g22" /><g
       id="g24" /><g
       id="g26" /><g
       id="g28" /><g
       id="g30" /><g
       id="g32" /><g
       id="g34" /><g
       id="g36" /><path
       d="M 0,0 253.68668,0"
       style="fill:none;stroke:#000000;stroke-width:0.79701;stroke-linecap:butt;stroke-linejoin:miter;stroke-miterlimit:10;stroke-dasharray:none;stroke-opacity:1"
       id="path38"
       inkscape:connector-curvature="0" /><g
       id="g40"
       transform="translate(253.68668,0)"><g
         id="g42"><path
           d="m 1.0361,0 c -1.29512,0.25902 -2.59025,0.77707 -4.1444,1.68365 1.55415,-1.1656 1.55415,-2.2017 0,-3.3673 1.55415,0.90658 2.84928,1.42463 4.1444,1.68365 z"
           style="fill:#000000;fill-opacity:1;fill-rule:nonzero;stroke:#000000;stroke-width:0.79701;stroke-linecap:butt;stroke-linejoin:round;stroke-miterlimit:10;stroke-dasharray:none;stroke-opacity:1"
           id="path44"
           inkscape:connector-curvature="0" /></g></g><g
       id="g46" /><g
       id="g48"><g
         id="g50"
         transform="translate(251.746,-8.968)"><g
           id="g52"><g
             id="g54"
             transform="translate(-306.523,-11.462)"><text
               transform="matrix(1,0,0,-1,307.309,11.462)"
               style="font-style:italic;font-variant:normal;font-size:10.47280025px;font-family:CharterBT;-inkscape-font-specification:CharterBT-Italic;writing-mode:lr-tb;fill:#000000;fill-opacity:1;fill-rule:nonzero;stroke:none"
               id="text56"><tspan
                 x="0"
                 y="0"
                 id="tspan58">x</tspan></text>
<g
               id="g60"
               transform="translate(306.523,11.462)" /></g></g><g
           id="g62"
           transform="translate(-251.746,8.968)" /></g></g><path
       d="M 0,0 0,140.29944"
       style="fill:none;stroke:#000000;stroke-width:0.79701;stroke-linecap:butt;stroke-linejoin:miter;stroke-miterlimit:10;stroke-dasharray:none;stroke-opacity:1"
       id="path64"
       inkscape:connector-curvature="0" /><g
       id="g66"
       transform="matrix(0,1,-1,0,0,140.29944)"><g
         id="g68"><path
           d="m 1.0361,0 c -1.29512,0.25902 -2.59025,0.77707 -4.1444,1.68365 1.55415,-1.1656 1.55415,-2.2017 0,-3.3673 1.55415,0.90658 2.84928,1.42463 4.1444,1.68365 z"
           style="fill:#000000;fill-opacity:1;fill-rule:nonzero;stroke:#000000;stroke-width:0.79701;stroke-linecap:butt;stroke-linejoin:round;stroke-miterlimit:10;stroke-dasharray:none;stroke-opacity:1"
           id="path70"
           inkscape:connector-curvature="0" /></g></g><g
       id="g72" /><g
       id="g74"><g
         id="g76"
         transform="translate(-10.907,147.899)"><g
           id="g78"><g
             id="g80"
             transform="translate(-43.87,-168.329)"><text
               transform="matrix(1,0,0,-1,45.179,168.329)"
               style="font-style:italic;font-variant:normal;font-size:10.47280025px;font-family:CharterBT;-inkscape-font-specification:CharterBT-Italic;writing-mode:lr-tb;fill:#000000;fill-opacity:1;fill-rule:nonzero;stroke:none"
               id="text82"><tspan
                 x="0"
                 y="0"
                 id="tspan84">f</tspan></text>
<text
               transform="matrix(1,0,0,-1,50.709,168.329)"
               style="font-variant:normal;font-size:10.47280025px;font-family:MathDesign-CH-Regular-OT1;-inkscape-font-specification:MathDesign-CH-Regular-OT1-10;writing-mode:lr-tb;fill:#000000;fill-opacity:1;fill-rule:nonzero;stroke:none"
               id="text86"><tspan
                 x="0"
                 y="0"
                 id="tspan88">(</tspan></text>
<text
               transform="matrix(1,0,0,-1,55.61,168.329)"
               style="font-style:italic;font-variant:normal;font-size:10.47280025px;font-family:CharterBT;-inkscape-font-specification:CharterBT-Italic;writing-mode:lr-tb;fill:#000000;fill-opacity:1;fill-rule:nonzero;stroke:none"
               id="text90"><tspan
                 x="0"
                 y="0"
                 id="tspan92">x</tspan></text>
<text
               transform="matrix(1,0,0,-1,61.569,168.329)"
               style="font-variant:normal;font-size:10.47280025px;font-family:MathDesign-CH-Regular-OT1;-inkscape-font-specification:MathDesign-CH-Regular-OT1-10;writing-mode:lr-tb;fill:#000000;fill-opacity:1;fill-rule:nonzero;stroke:none"
               id="text94"><tspan
                 x="0"
                 y="0"
                 id="tspan96">)</tspan></text>
<g
               id="g98"
               transform="translate(43.87,168.329)" /></g></g><g
           id="g100"
           transform="translate(10.907,-147.899)" /></g></g><g
       id="g102"><path
         d="m 0,0 c 0,0 57.50938,61.0311 85.04042,83.05592 27.53104,22.02483 56.69362,30.33132 56.69362,30.33132"
         style="fill:none;stroke:#ff0000;stroke-width:0.79701;stroke-linecap:butt;stroke-linejoin:miter;stroke-miterlimit:10;stroke-dasharray:none;stroke-opacity:1"
         id="path104"
         inkscape:connector-curvature="0" /></g><g
       id="g106"><path
         d="m 161.5767,99.21382 c 0,0 24.18667,-20.41365 36.85096,-39.68536 C 211.09196,40.25674 226.77448,0 226.77448,0"
         style="fill:none;stroke:#ff0000;stroke-width:0.79701;stroke-linecap:butt;stroke-linejoin:miter;stroke-miterlimit:10;stroke-dasharray:none;stroke-opacity:1"
         id="path108"
         inkscape:connector-curvature="0" /></g><g
       id="g110"><path
         d="M 85.04042,0 198.42766,0"
         style="fill:none;stroke:#ed7f10;stroke-width:0.79701;stroke-linecap:butt;stroke-linejoin:miter;stroke-miterlimit:10;stroke-dasharray:none;stroke-opacity:1"
         id="path112"
         inkscape:connector-curvature="0" /><g
         id="g114"><g
           id="g116"><path
             d="m 87.03297,0 c 0,1.10046 -0.89207,1.99255 -1.99255,1.99255 -1.10046,0 -1.99255,-0.89209 -1.99255,-1.99255 0,-1.10046 0.89209,-1.99255 1.99255,-1.99255 1.10048,0 1.99255,0.89209 1.99255,1.99255 z"
             style="fill:#ffffff;fill-opacity:1;fill-rule:nonzero;stroke:#ed7f10;stroke-width:0.79701;stroke-linecap:butt;stroke-linejoin:miter;stroke-miterlimit:10;stroke-dasharray:none;stroke-opacity:1"
             id="path118"
             inkscape:connector-curvature="0" /></g><g
           id="g120"
           transform="translate(85.04,0)"><g
             id="g122" /><g
             id="g124"
             transform="translate(-85.04,0)" /></g></g><g
         id="g126"><g
           id="g128"
           transform="translate(85.04,6.28)"><g
             id="g130" /><g
             id="g132"
             transform="translate(-85.04,-6.28)" /></g></g><g
         id="g134"><g
           id="g136"><path
             d="m 200.42021,0 c 0,1.10046 -0.89207,1.99255 -1.99255,1.99255 -1.10046,0 -1.99256,-0.89209 -1.99256,-1.99255 0,-1.10046 0.8921,-1.99255 1.99256,-1.99255 1.10048,0 1.99255,0.89209 1.99255,1.99255 z"
             style="fill:#ffffff;fill-opacity:1;fill-rule:nonzero;stroke:#ed7f10;stroke-width:0.79701;stroke-linecap:butt;stroke-linejoin:miter;stroke-miterlimit:10;stroke-dasharray:none;stroke-opacity:1"
             id="path138"
             inkscape:connector-curvature="0" /></g><g
           id="g140"
           transform="translate(198.426,0)"><g
             id="g142" /><g
             id="g144"
             transform="translate(-198.426,0)" /></g></g><g
         id="g146"><g
           id="g148"
           transform="translate(198.426,6.28)"><g
             id="g150" /><g
             id="g152"
             transform="translate(-198.426,-6.28)" /></g></g></g><g
       id="g154"><path
         d="M 0,83.05592 0,59.52846"
         style="fill:none;stroke:#ed7f10;stroke-width:0.79701;stroke-linecap:butt;stroke-linejoin:miter;stroke-miterlimit:10;stroke-dasharray:none;stroke-opacity:1"
         id="path156"
         inkscape:connector-curvature="0" /><g
         id="g158"><g
           id="g160"><path
             d="m 1.99255,83.05592 c 0,1.10048 -0.89209,1.99256 -1.99255,1.99256 -1.10046,0 -1.99255,-0.89208 -1.99255,-1.99256 0,-1.10046 0.89209,-1.99255 1.99255,-1.99255 1.10046,0 1.99255,0.89209 1.99255,1.99255 z"
             style="fill:#ffffff;fill-opacity:1;fill-rule:nonzero;stroke:#ed7f10;stroke-width:0.79701;stroke-linecap:butt;stroke-linejoin:miter;stroke-miterlimit:10;stroke-dasharray:none;stroke-opacity:1"
             id="path162"
             inkscape:connector-curvature="0" /></g><g
           id="g164"
           transform="translate(0,83.055)"><g
             id="g166" /><g
             id="g168"
             transform="translate(0,-83.055)" /></g></g><g
         id="g170"><g
           id="g172"
           transform="translate(0,89.335)"><g
             id="g174" /><g
             id="g176"
             transform="translate(0,-89.335)" /></g></g><g
         id="g178"><g
           id="g180"><path
             d="m 1.99255,59.52846 c 0,1.10048 -0.89209,1.99255 -1.99255,1.99255 -1.10046,0 -1.99255,-0.89207 -1.99255,-1.99255 0,-1.10046 0.89209,-1.99256 1.99255,-1.99256 1.10046,0 1.99255,0.8921 1.99255,1.99256 z"
             style="fill:#ffffff;fill-opacity:1;fill-rule:nonzero;stroke:#ed7f10;stroke-width:0.79701;stroke-linecap:butt;stroke-linejoin:miter;stroke-miterlimit:10;stroke-dasharray:none;stroke-opacity:1"
             id="path182"
             inkscape:connector-curvature="0" /></g><g
           id="g184"
           transform="translate(0,59.528)"><g
             id="g186" /><g
             id="g188"
             transform="translate(0,-59.528)" /></g></g><g
         id="g190"><g
           id="g192"
           transform="translate(0,65.808)"><g
             id="g194" /><g
             id="g196"
             transform="translate(0,-65.808)" /></g></g></g><g
       id="g198"><path
         d="M 141.73404,113.38724 141.73404,0"
         style="fill:none;stroke:#808080;stroke-width:0.79701;stroke-linecap:butt;stroke-linejoin:miter;stroke-miterlimit:10;stroke-dasharray:none;stroke-opacity:1"
         id="path200"
         inkscape:connector-curvature="0" /><g
         id="g202"><g
           id="g204"><path
             d="m 143.7266,113.38724 c 0,1.10046 -0.89208,1.99255 -1.99256,1.99255 -1.10046,0 -1.99255,-0.89209 -1.99255,-1.99255 0,-1.10048 0.89209,-1.99256 1.99255,-1.99256 1.10048,0 1.99256,0.89208 1.99256,1.99256 z"
             style="fill:#0000ff;fill-opacity:1;fill-rule:nonzero;stroke:#808080;stroke-width:0.79701;stroke-linecap:butt;stroke-linejoin:miter;stroke-miterlimit:10;stroke-dasharray:none;stroke-opacity:1"
             id="path206"
             inkscape:connector-curvature="0" /></g><g
           id="g208"
           transform="translate(141.733,113.386)"><g
             id="g210" /><g
             id="g212"
             transform="translate(-141.733,-113.386)" /></g></g><g
         id="g214"><g
           id="g216"
           transform="translate(138.821,119.666)"><g
             id="g218"><g
               id="g220"
               transform="translate(-193.598,-140.096)"><text
                 transform="matrix(1,0,0,-1,193.598,140.096)"
                 style="font-style:italic;font-variant:normal;font-size:10.47280025px;font-family:CharterBT;-inkscape-font-specification:CharterBT-Italic;writing-mode:lr-tb;fill:#808080;fill-opacity:1;fill-rule:nonzero;stroke:none"
                 id="text222"><tspan
                   x="0"
                   y="0"
                   id="tspan224">A</tspan></text>
<g
                 id="g226"
                 transform="translate(193.598,140.096)" /></g></g><g
             id="g228"
             transform="translate(-138.821,-119.666)" /></g></g><g
         id="g230"><g
           id="g232"
           transform="translate(137.844,56.693)"><g
             id="g234" /><g
             id="g236"
             transform="translate(-137.844,-56.693)" /></g></g><g
         id="g238"><g
           id="g240"><path
             d="m 143.7266,0 c 0,1.10046 -0.89208,1.99255 -1.99256,1.99255 -1.10046,0 -1.99255,-0.89209 -1.99255,-1.99255 0,-1.10046 0.89209,-1.99255 1.99255,-1.99255 1.10048,0 1.99256,0.89209 1.99256,1.99255 z"
             style="fill:#ffffff;fill-opacity:1;fill-rule:nonzero;stroke:#808080;stroke-width:0.79701;stroke-linecap:butt;stroke-linejoin:miter;stroke-miterlimit:10;stroke-dasharray:none;stroke-opacity:1"
             id="path242"
             inkscape:connector-curvature="0" /></g><g
           id="g244"
           transform="translate(141.733,0)"><g
             id="g246" /><g
             id="g248"
             transform="translate(-141.733,0)" /></g></g><g
         id="g250"><g
           id="g252"
           transform="translate(136.204,-11.359)"><g
             id="g254"><g
               id="g256"
               transform="translate(-190.981,-9.071)"><text
                 transform="matrix(1,0,0,-1,191.767,9.071)"
                 style="font-style:italic;font-variant:normal;font-size:10.47280025px;font-family:CharterBT;-inkscape-font-specification:CharterBT-Italic;writing-mode:lr-tb;fill:#808080;fill-opacity:1;fill-rule:nonzero;stroke:none"
                 id="text258"><tspan
                   x="0"
                   y="0"
                   id="tspan260">x</tspan></text>
<text
                 transform="matrix(1,0,0,-1,197.286,6.704)"
                 style="font-variant:normal;font-weight:normal;font-size:7.65140009px;font-family:CharterBT;-inkscape-font-specification:CharterBT-Roman;writing-mode:lr-tb;fill:#808080;fill-opacity:1;fill-rule:nonzero;stroke:none"
                 id="text262"><tspan
                   x="0"
                   y="0"
                   id="tspan264">0</tspan></text>
<g
                 id="g266"
                 transform="translate(190.981,9.071)" /></g></g><g
             id="g268"
             transform="translate(-136.204,11.359)" /></g></g></g><g
       id="g270"><path
         d="M 85.04042,83.05592 85.04042,0"
         style="fill:none;stroke:#808080;stroke-width:0.79701;stroke-linecap:butt;stroke-linejoin:miter;stroke-miterlimit:10;stroke-dasharray:none;stroke-opacity:1"
         id="path272"
         inkscape:connector-curvature="0" /><g
         id="g274"><g
           id="g276"><path
             d="m 87.03297,83.05592 c 0,1.10048 -0.89207,1.99256 -1.99255,1.99256 -1.10046,0 -1.99255,-0.89208 -1.99255,-1.99256 0,-1.10046 0.89209,-1.99255 1.99255,-1.99255 1.10048,0 1.99255,0.89209 1.99255,1.99255 z"
             style="fill:#ffffff;fill-opacity:1;fill-rule:nonzero;stroke:#808080;stroke-width:0.79701;stroke-linecap:butt;stroke-linejoin:miter;stroke-miterlimit:10;stroke-dasharray:none;stroke-opacity:1"
             id="path278"
             inkscape:connector-curvature="0" /></g><g
           id="g280"
           transform="translate(85.04,83.055)"><g
             id="g282" /><g
             id="g284"
             transform="translate(-85.04,-83.055)" /></g></g><g
         id="g286"><g
           id="g288"
           transform="translate(81.332,91.011)"><g
             id="g290"><g
               id="g292"
               transform="translate(-136.109,-111.441)"><text
                 transform="matrix(1,0,0,-1,135.848,111.441)"
                 style="font-style:italic;font-variant:normal;font-size:10.47280025px;font-family:CharterBT;-inkscape-font-specification:CharterBT-Italic;writing-mode:lr-tb;fill:#808080;fill-opacity:1;fill-rule:nonzero;stroke:none"
                 id="text294"><tspan
                   x="0"
                   y="0"
                   id="tspan296">Q</tspan></text>
<g
                 id="g298"
                 transform="translate(136.109,111.441)" /></g></g><g
             id="g300"
             transform="translate(-81.332,-91.011)" /></g></g><g
         id="g302"><g
           id="g304"
           transform="translate(81.151,41.528)"><g
             id="g306" /><g
             id="g308"
             transform="translate(-81.151,-41.528)" /></g></g><g
         id="g310"><g
           id="g312"><path
             d="m 87.03297,0 c 0,1.10046 -0.89207,1.99255 -1.99255,1.99255 -1.10046,0 -1.99255,-0.89209 -1.99255,-1.99255 0,-1.10046 0.89209,-1.99255 1.99255,-1.99255 1.10048,0 1.99255,0.89209 1.99255,1.99255 z"
             style="fill:#ffffff;fill-opacity:1;fill-rule:nonzero;stroke:#808080;stroke-width:0.79701;stroke-linecap:butt;stroke-linejoin:miter;stroke-miterlimit:10;stroke-dasharray:none;stroke-opacity:1"
             id="path314"
             inkscape:connector-curvature="0" /></g><g
           id="g316"
           transform="translate(85.04,0)"><g
             id="g318" /><g
             id="g320"
             transform="translate(-85.04,0)" /></g></g><g
         id="g322"><g
           id="g324"
           transform="translate(70.321,-14.019)"><g
             id="g326"><g
               id="g328"
               transform="translate(-125.098,-6.411)"><text
                 transform="matrix(1,0,0,-1,125.884,6.411)"
                 style="font-style:italic;font-variant:normal;font-size:10.47280025px;font-family:CharterBT;-inkscape-font-specification:CharterBT-Italic;writing-mode:lr-tb;fill:#808080;fill-opacity:1;fill-rule:nonzero;stroke:none"
                 id="text330"><tspan
                   x="0"
                   y="0"
                   id="tspan332">x</tspan></text>
<text
                 transform="matrix(1,0,0,-1,131.403,4.044)"
                 style="font-variant:normal;font-weight:normal;font-size:7.65140009px;font-family:CharterBT;-inkscape-font-specification:CharterBT-Roman;writing-mode:lr-tb;fill:#808080;fill-opacity:1;fill-rule:nonzero;stroke:none"
                 id="text334"><tspan
                   x="0"
                   y="0"
                   id="tspan336">0</tspan></text>
<text
                 transform="matrix(1,0,0,-1,138.103,6.411)"
                 style="font-variant:normal;font-size:10.47280025px;font-family:MathDesign-CH-Regular-Symbol;-inkscape-font-specification:MathDesign-CH-Regular-Symbol-10;writing-mode:lr-tb;fill:#808080;fill-opacity:1;fill-rule:nonzero;stroke:none"
                 id="text338"><tspan
                   x="0"
                   y="0"
                   id="tspan340">−</tspan></text>
<text
                 transform="matrix(1,0,0,-1,147.707,6.411)"
                 style="font-variant:normal;font-size:10.47280025px;font-family:MathDesign-CH-Regular-Italic-MathItalic;-inkscape-font-specification:MathDesign-CH-Regular-Italic-MathItalic-10;writing-mode:lr-tb;fill:#808080;fill-opacity:1;fill-rule:nonzero;stroke:none"
                 id="text342"><tspan
                   x="0"
                   y="0"
                   id="tspan344">δ</tspan></text>
<g
                 id="g346"
                 transform="translate(125.098,6.411)" /></g></g><g
             id="g348"
             transform="translate(-70.321,14.019)" /></g></g></g><g
       id="g350"><path
         d="M 198.42766,59.52846 198.42766,0"
         style="fill:none;stroke:#808080;stroke-width:0.79701;stroke-linecap:butt;stroke-linejoin:miter;stroke-miterlimit:10;stroke-dasharray:none;stroke-opacity:1"
         id="path352"
         inkscape:connector-curvature="0" /><g
         id="g354"><g
           id="g356"><path
             d="m 200.42021,59.52846 c 0,1.10048 -0.89207,1.99255 -1.99255,1.99255 -1.10046,0 -1.99256,-0.89207 -1.99256,-1.99255 0,-1.10046 0.8921,-1.99256 1.99256,-1.99256 1.10048,0 1.99255,0.8921 1.99255,1.99256 z"
             style="fill:#ffffff;fill-opacity:1;fill-rule:nonzero;stroke:#808080;stroke-width:0.79701;stroke-linecap:butt;stroke-linejoin:miter;stroke-miterlimit:10;stroke-dasharray:none;stroke-opacity:1"
             id="path358"
             inkscape:connector-curvature="0" /></g><g
           id="g360"
           transform="translate(198.425,59.528)"><g
             id="g362" /><g
             id="g364"
             transform="translate(-198.425,-59.528)" /></g></g><g
         id="g366"><g
           id="g368"
           transform="translate(194.577,65.808)"><g
             id="g370"><g
               id="g372"
               transform="translate(-249.354,-86.238)"><text
                 transform="matrix(1,0,0,-1,249.877,86.238)"
                 style="font-style:italic;font-variant:normal;font-size:10.47280025px;font-family:CharterBT;-inkscape-font-specification:CharterBT-Italic;writing-mode:lr-tb;fill:#808080;fill-opacity:1;fill-rule:nonzero;stroke:none"
                 id="text374"><tspan
                   x="0"
                   y="0"
                   id="tspan376">T</tspan></text>
<g
                 id="g378"
                 transform="translate(249.354,86.238)" /></g></g><g
             id="g380"
             transform="translate(-194.577,-65.808)" /></g></g><g
         id="g382"><g
           id="g384"
           transform="translate(194.536,29.764)"><g
             id="g386" /><g
             id="g388"
             transform="translate(-194.536,-29.764)" /></g></g><g
         id="g390"><g
           id="g392"><path
             d="m 200.42021,0 c 0,1.10046 -0.89207,1.99255 -1.99255,1.99255 -1.10046,0 -1.99256,-0.89209 -1.99256,-1.99255 0,-1.10046 0.8921,-1.99255 1.99256,-1.99255 1.10048,0 1.99255,0.89209 1.99255,1.99255 z"
             style="fill:#ffffff;fill-opacity:1;fill-rule:nonzero;stroke:#808080;stroke-width:0.79701;stroke-linecap:butt;stroke-linejoin:miter;stroke-miterlimit:10;stroke-dasharray:none;stroke-opacity:1"
             id="path394"
             inkscape:connector-curvature="0" /></g><g
           id="g396"
           transform="translate(198.425,0)"><g
             id="g398" /><g
             id="g400"
             transform="translate(-198.425,0)" /></g></g><g
         id="g402"><g
           id="g404"
           transform="translate(183.707,-14.019)"><g
             id="g406"><g
               id="g408"
               transform="translate(-238.484,-6.411)"><text
                 transform="matrix(1,0,0,-1,239.27,6.411)"
                 style="font-style:italic;font-variant:normal;font-size:10.47280025px;font-family:CharterBT;-inkscape-font-specification:CharterBT-Italic;writing-mode:lr-tb;fill:#808080;fill-opacity:1;fill-rule:nonzero;stroke:none"
                 id="text410"><tspan
                   x="0"
                   y="0"
                   id="tspan412">x</tspan></text>
<text
                 transform="matrix(1,0,0,-1,244.789,4.044)"
                 style="font-variant:normal;font-weight:normal;font-size:7.65140009px;font-family:CharterBT;-inkscape-font-specification:CharterBT-Roman;writing-mode:lr-tb;fill:#808080;fill-opacity:1;fill-rule:nonzero;stroke:none"
                 id="text414"><tspan
                   x="0"
                   y="0"
                   id="tspan416">0</tspan></text>
<text
                 transform="matrix(1,0,0,-1,251.489,6.411)"
                 style="font-variant:normal;font-size:10.47280025px;font-family:MathDesign-CH-Regular-OT1;-inkscape-font-specification:MathDesign-CH-Regular-OT1-10;writing-mode:lr-tb;fill:#808080;fill-opacity:1;fill-rule:nonzero;stroke:none"
                 id="text418"><tspan
                   x="0"
                   y="0"
                   id="tspan420">+</tspan></text>
<text
                 transform="matrix(1,0,0,-1,261.093,6.411)"
                 style="font-variant:normal;font-size:10.47280025px;font-family:MathDesign-CH-Regular-Italic-MathItalic;-inkscape-font-specification:MathDesign-CH-Regular-Italic-MathItalic-10;writing-mode:lr-tb;fill:#808080;fill-opacity:1;fill-rule:nonzero;stroke:none"
                 id="text422"><tspan
                   x="0"
                   y="0"
                   id="tspan424">δ</tspan></text>
<g
                 id="g426"
                 transform="translate(238.484,6.411)" /></g></g><g
             id="g428"
             transform="translate(-183.707,14.019)" /></g></g></g><g
       id="g430"><path
         d="m 0,83.05592 85.04042,0"
         style="fill:none;stroke:#808080;stroke-width:0.79701;stroke-linecap:butt;stroke-linejoin:miter;stroke-miterlimit:10;stroke-dasharray:none;stroke-opacity:1"
         id="path432"
         inkscape:connector-curvature="0" /><g
         id="g434"><g
           id="g436"><path
             d="m 1.99255,83.05592 c 0,1.10048 -0.89209,1.99256 -1.99255,1.99256 -1.10046,0 -1.99255,-0.89208 -1.99255,-1.99256 0,-1.10046 0.89209,-1.99255 1.99255,-1.99255 1.10046,0 1.99255,0.89209 1.99255,1.99255 z"
             style="fill:#ffffff;fill-opacity:1;fill-rule:nonzero;stroke:#808080;stroke-width:0.79701;stroke-linecap:butt;stroke-linejoin:miter;stroke-miterlimit:10;stroke-dasharray:none;stroke-opacity:1"
             id="path438"
             inkscape:connector-curvature="0" /></g><g
           id="g440"
           transform="translate(0,83.055)"><g
             id="g442" /><g
             id="g444"
             transform="translate(0,-83.055)" /></g></g><g
         id="g446"><g
           id="g448"
           transform="translate(-50.787,80.249)"><g
             id="g450"><g
               id="g452"
               transform="translate(-3.99,-100.679)"><text
                 transform="matrix(1,0,0,-1,5.3,100.679)"
                 style="font-style:italic;font-variant:normal;font-size:10.47280025px;font-family:CharterBT;-inkscape-font-specification:CharterBT-Italic;writing-mode:lr-tb;fill:#808080;fill-opacity:1;fill-rule:nonzero;stroke:none"
                 id="text454"><tspan
                   x="0"
                   y="0"
                   id="tspan456">f</tspan></text>
<text
                 transform="matrix(1,0,0,-1,10.829,100.679)"
                 style="font-variant:normal;font-size:10.47280025px;font-family:MathDesign-CH-Regular-OT1;-inkscape-font-specification:MathDesign-CH-Regular-OT1-10;writing-mode:lr-tb;fill:#808080;fill-opacity:1;fill-rule:nonzero;stroke:none"
                 id="text458"><tspan
                   x="0"
                   y="0"
                   id="tspan460">(</tspan></text>
<text
                 transform="matrix(1,0,0,-1,15.73,100.679)"
                 style="font-style:italic;font-variant:normal;font-size:10.47280025px;font-family:CharterBT;-inkscape-font-specification:CharterBT-Italic;writing-mode:lr-tb;fill:#808080;fill-opacity:1;fill-rule:nonzero;stroke:none"
                 id="text462"><tspan
                   x="0"
                   y="0"
                   id="tspan464">x</tspan></text>
<text
                 transform="matrix(1,0,0,-1,21.25,98.312)"
                 style="font-variant:normal;font-weight:normal;font-size:7.65140009px;font-family:CharterBT;-inkscape-font-specification:CharterBT-Roman;writing-mode:lr-tb;fill:#808080;fill-opacity:1;fill-rule:nonzero;stroke:none"
                 id="text466"><tspan
                   x="0"
                   y="0"
                   id="tspan468">0</tspan></text>
<text
                 transform="matrix(1,0,0,-1,27.95,100.679)"
                 style="font-variant:normal;font-size:10.47280025px;font-family:MathDesign-CH-Regular-Symbol;-inkscape-font-specification:MathDesign-CH-Regular-Symbol-10;writing-mode:lr-tb;fill:#808080;fill-opacity:1;fill-rule:nonzero;stroke:none"
                 id="text470"><tspan
                   x="0"
                   y="0"
                   id="tspan472">−</tspan></text>
<text
                 transform="matrix(1,0,0,-1,37.553,100.679)"
                 style="font-variant:normal;font-size:10.47280025px;font-family:MathDesign-CH-Regular-Italic-MathItalic;-inkscape-font-specification:MathDesign-CH-Regular-Italic-MathItalic-10;writing-mode:lr-tb;fill:#808080;fill-opacity:1;fill-rule:nonzero;stroke:none"
                 id="text474"><tspan
                   x="0"
                   y="0"
                   id="tspan476">δ</tspan></text>
<text
                 transform="matrix(1,0,0,-1,44.381,100.679)"
                 style="font-variant:normal;font-size:10.47280025px;font-family:MathDesign-CH-Regular-OT1;-inkscape-font-specification:MathDesign-CH-Regular-OT1-10;writing-mode:lr-tb;fill:#808080;fill-opacity:1;fill-rule:nonzero;stroke:none"
                 id="text478"><tspan
                   x="0"
                   y="0"
                   id="tspan480">)</tspan></text>
<g
                 id="g482"
                 transform="translate(3.99,100.679)" /></g></g><g
             id="g484"
             transform="translate(50.787,-80.249)" /></g></g><g
         id="g486"><g
           id="g488"><path
             d="m 87.03297,83.05592 c 0,1.10048 -0.89207,1.99256 -1.99255,1.99256 -1.10046,0 -1.99255,-0.89208 -1.99255,-1.99256 0,-1.10046 0.89209,-1.99255 1.99255,-1.99255 1.10048,0 1.99255,0.89209 1.99255,1.99255 z"
             style="fill:#0000ff;fill-opacity:1;fill-rule:nonzero;stroke:#808080;stroke-width:0.79701;stroke-linecap:butt;stroke-linejoin:miter;stroke-miterlimit:10;stroke-dasharray:none;stroke-opacity:1"
             id="path490"
             inkscape:connector-curvature="0" /></g><g
           id="g492"
           transform="translate(85.04,83.055)"><g
             id="g494" /><g
             id="g496"
             transform="translate(-85.04,-83.055)" /></g></g><g
         id="g498"><g
           id="g500"
           transform="translate(85.04,89.335)"><g
             id="g502" /><g
             id="g504"
             transform="translate(-85.04,-89.335)" /></g></g></g><g
       id="g506"><path
         d="m 0,59.52846 198.42766,0"
         style="fill:none;stroke:#808080;stroke-width:0.79701;stroke-linecap:butt;stroke-linejoin:miter;stroke-miterlimit:10;stroke-dasharray:none;stroke-opacity:1"
         id="path508"
         inkscape:connector-curvature="0" /><g
         id="g510"><g
           id="g512"><path
             d="m 1.99255,59.52846 c 0,1.10048 -0.89209,1.99255 -1.99255,1.99255 -1.10046,0 -1.99255,-0.89207 -1.99255,-1.99255 0,-1.10046 0.89209,-1.99256 1.99255,-1.99256 1.10046,0 1.99255,0.8921 1.99255,1.99256 z"
             style="fill:#ffffff;fill-opacity:1;fill-rule:nonzero;stroke:#808080;stroke-width:0.79701;stroke-linecap:butt;stroke-linejoin:miter;stroke-miterlimit:10;stroke-dasharray:none;stroke-opacity:1"
             id="path514"
             inkscape:connector-curvature="0" /></g><g
           id="g516"
           transform="translate(0,59.528)"><g
             id="g518" /><g
             id="g520"
             transform="translate(0,-59.528)" /></g></g><g
         id="g522"><g
           id="g524"
           transform="translate(-50.787,56.722)"><g
             id="g526"><g
               id="g528"
               transform="translate(-3.99,-77.152)"><text
                 transform="matrix(1,0,0,-1,5.299,77.152)"
                 style="font-style:italic;font-variant:normal;font-size:10.47280025px;font-family:CharterBT;-inkscape-font-specification:CharterBT-Italic;writing-mode:lr-tb;fill:#808080;fill-opacity:1;fill-rule:nonzero;stroke:none"
                 id="text530"><tspan
                   x="0"
                   y="0"
                   id="tspan532">f</tspan></text>
<text
                 transform="matrix(1,0,0,-1,10.829,77.152)"
                 style="font-variant:normal;font-size:10.47280025px;font-family:MathDesign-CH-Regular-OT1;-inkscape-font-specification:MathDesign-CH-Regular-OT1-10;writing-mode:lr-tb;fill:#808080;fill-opacity:1;fill-rule:nonzero;stroke:none"
                 id="text534"><tspan
                   x="0"
                   y="0"
                   id="tspan536">(</tspan></text>
<text
                 transform="matrix(1,0,0,-1,15.73,77.152)"
                 style="font-style:italic;font-variant:normal;font-size:10.47280025px;font-family:CharterBT;-inkscape-font-specification:CharterBT-Italic;writing-mode:lr-tb;fill:#808080;fill-opacity:1;fill-rule:nonzero;stroke:none"
                 id="text538"><tspan
                   x="0"
                   y="0"
                   id="tspan540">x</tspan></text>
<text
                 transform="matrix(1,0,0,-1,21.25,74.785)"
                 style="font-variant:normal;font-weight:normal;font-size:7.65140009px;font-family:CharterBT;-inkscape-font-specification:CharterBT-Roman;writing-mode:lr-tb;fill:#808080;fill-opacity:1;fill-rule:nonzero;stroke:none"
                 id="text542"><tspan
                   x="0"
                   y="0"
                   id="tspan544">0</tspan></text>
<text
                 transform="matrix(1,0,0,-1,27.95,77.152)"
                 style="font-variant:normal;font-size:10.47280025px;font-family:MathDesign-CH-Regular-OT1;-inkscape-font-specification:MathDesign-CH-Regular-OT1-10;writing-mode:lr-tb;fill:#808080;fill-opacity:1;fill-rule:nonzero;stroke:none"
                 id="text546"><tspan
                   x="0"
                   y="0"
                   id="tspan548">+</tspan></text>
<text
                 transform="matrix(1,0,0,-1,37.553,77.152)"
                 style="font-variant:normal;font-size:10.47280025px;font-family:MathDesign-CH-Regular-Italic-MathItalic;-inkscape-font-specification:MathDesign-CH-Regular-Italic-MathItalic-10;writing-mode:lr-tb;fill:#808080;fill-opacity:1;fill-rule:nonzero;stroke:none"
                 id="text550"><tspan
                   x="0"
                   y="0"
                   id="tspan552">δ</tspan></text>
<text
                 transform="matrix(1,0,0,-1,44.381,77.152)"
                 style="font-variant:normal;font-size:10.47280025px;font-family:MathDesign-CH-Regular-OT1;-inkscape-font-specification:MathDesign-CH-Regular-OT1-10;writing-mode:lr-tb;fill:#808080;fill-opacity:1;fill-rule:nonzero;stroke:none"
                 id="text554"><tspan
                   x="0"
                   y="0"
                   id="tspan556">)</tspan></text>
<g
                 id="g558"
                 transform="translate(3.99,77.152)" /></g></g><g
             id="g560"
             transform="translate(50.787,-56.722)" /></g></g><g
         id="g562"><g
           id="g564"><path
             d="m 200.42021,59.52846 c 0,1.10048 -0.89207,1.99255 -1.99255,1.99255 -1.10046,0 -1.99256,-0.89207 -1.99256,-1.99255 0,-1.10046 0.8921,-1.99256 1.99256,-1.99256 1.10048,0 1.99255,0.8921 1.99255,1.99256 z"
             style="fill:#0000ff;fill-opacity:1;fill-rule:nonzero;stroke:#808080;stroke-width:0.79701;stroke-linecap:butt;stroke-linejoin:miter;stroke-miterlimit:10;stroke-dasharray:none;stroke-opacity:1"
             id="path566"
             inkscape:connector-curvature="0" /></g><g
           id="g568"
           transform="translate(198.425,59.528)"><g
             id="g570" /><g
             id="g572"
             transform="translate(-198.425,-59.528)" /></g></g><g
         id="g574"><g
           id="g576"
           transform="translate(198.425,65.808)"><g
             id="g578" /><g
             id="g580"
             transform="translate(-198.425,-65.808)" /></g></g></g><g
       id="g582"><path
         d="m 0,113.38724 139.34299,0"
         style="fill:none;stroke:#808080;stroke-width:0.79701;stroke-linecap:butt;stroke-linejoin:miter;stroke-miterlimit:10;stroke-dasharray:none;stroke-opacity:1"
         id="path584"
         inkscape:connector-curvature="0" /><g
         id="g586"><g
           id="g588"><path
             d="m 1.99255,113.38724 c 0,1.10046 -0.89209,1.99255 -1.99255,1.99255 -1.10046,0 -1.99255,-0.89209 -1.99255,-1.99255 0,-1.10048 0.89209,-1.99256 1.99255,-1.99256 1.10046,0 1.99255,0.89208 1.99255,1.99256 z"
             style="fill:#ffffff;fill-opacity:1;fill-rule:nonzero;stroke:#808080;stroke-width:0.79701;stroke-linecap:butt;stroke-linejoin:miter;stroke-miterlimit:10;stroke-dasharray:none;stroke-opacity:1"
             id="path590"
             inkscape:connector-curvature="0" /></g><g
           id="g592"
           transform="translate(0,113.386)"><g
             id="g594" /><g
             id="g596"
             transform="translate(0,-113.386)" /></g></g><g
         id="g598"><g
           id="g600"
           transform="translate(-32.407,110.58)"><g
             id="g602"><g
               id="g604"
               transform="translate(-22.37,-131.01)"><text
                 transform="matrix(1,0,0,-1,23.679,131.01)"
                 style="font-style:italic;font-variant:normal;font-size:10.47280025px;font-family:CharterBT;-inkscape-font-specification:CharterBT-Italic;writing-mode:lr-tb;fill:#808080;fill-opacity:1;fill-rule:nonzero;stroke:none"
                 id="text606"><tspan
                   x="0"
                   y="0"
                   id="tspan608">f</tspan></text>
<text
                 transform="matrix(1,0,0,-1,29.209,131.01)"
                 style="font-variant:normal;font-size:10.47280025px;font-family:MathDesign-CH-Regular-OT1;-inkscape-font-specification:MathDesign-CH-Regular-OT1-10;writing-mode:lr-tb;fill:#808080;fill-opacity:1;fill-rule:nonzero;stroke:none"
                 id="text610"><tspan
                   x="0"
                   y="0"
                   id="tspan612">(</tspan></text>
<text
                 transform="matrix(1,0,0,-1,34.11,131.01)"
                 style="font-style:italic;font-variant:normal;font-size:10.47280025px;font-family:CharterBT;-inkscape-font-specification:CharterBT-Italic;writing-mode:lr-tb;fill:#808080;fill-opacity:1;fill-rule:nonzero;stroke:none"
                 id="text614"><tspan
                   x="0"
                   y="0"
                   id="tspan616">x</tspan></text>
<text
                 transform="matrix(1,0,0,-1,39.629,128.643)"
                 style="font-variant:normal;font-weight:normal;font-size:7.65140009px;font-family:CharterBT;-inkscape-font-specification:CharterBT-Roman;writing-mode:lr-tb;fill:#808080;fill-opacity:1;fill-rule:nonzero;stroke:none"
                 id="text618"><tspan
                   x="0"
                   y="0"
                   id="tspan620">0</tspan></text>
<text
                 transform="matrix(1,0,0,-1,44.381,131.01)"
                 style="font-variant:normal;font-size:10.47280025px;font-family:MathDesign-CH-Regular-OT1;-inkscape-font-specification:MathDesign-CH-Regular-OT1-10;writing-mode:lr-tb;fill:#808080;fill-opacity:1;fill-rule:nonzero;stroke:none"
                 id="text622"><tspan
                   x="0"
                   y="0"
                   id="tspan624">)</tspan></text>
<g
                 id="g626"
                 transform="translate(22.37,131.01)" /></g></g><g
             id="g628"
             transform="translate(32.407,-110.58)" /></g></g><g
         id="g630"><g
           id="g632"><path
             d="m 143.7266,113.38724 c 0,1.10046 -0.89208,1.99255 -1.99256,1.99255 -1.10046,0 -1.99255,-0.89209 -1.99255,-1.99255 0,-1.10048 0.89209,-1.99256 1.99255,-1.99256 1.10048,0 1.99256,0.89208 1.99256,1.99256 z"
             style="fill:#0000ff;fill-opacity:1;fill-rule:nonzero;stroke:#808080;stroke-width:0.79701;stroke-linecap:butt;stroke-linejoin:miter;stroke-miterlimit:10;stroke-dasharray:none;stroke-opacity:1"
             id="path634"
             inkscape:connector-curvature="0" /></g><g
           id="g636"
           transform="translate(141.733,113.386)"><g
             id="g638" /><g
             id="g640"
             transform="translate(-141.733,-113.386)" /></g></g><g
         id="g642"><g
           id="g644"
           transform="translate(141.733,119.666)"><g
             id="g646" /><g
             id="g648"
             transform="translate(-141.733,-119.666)" /></g></g></g><g
       id="g650"><g
         id="g652" /><g
         id="g654"
         transform="translate(180.833,88.004)"><g
           id="g656"><g
             id="g658"
             transform="translate(-235.61,-108.434)"><text
               transform="matrix(1,0,0,-1,236.919,108.434)"
               style="font-style:italic;font-variant:normal;font-size:10.47280025px;font-family:CharterBT;-inkscape-font-specification:CharterBT-Italic;writing-mode:lr-tb;fill:#0000ff;fill-opacity:1;fill-rule:nonzero;stroke:none"
               id="text660"><tspan
                 x="0"
                 y="0"
                 id="tspan662">f</tspan></text>
<g
               id="g664"
               transform="translate(235.61,108.434)" /></g></g><g
           id="g666"
           transform="translate(-180.833,-88.004)" /></g></g><g
       id="g668"><g
         id="g670"><path
           d="m 163.56926,99.21382 c 0,1.10047 -0.89207,1.99256 -1.99256,1.99256 -1.10046,0 -1.99255,-0.89209 -1.99255,-1.99256 0,-1.10048 0.89209,-1.99255 1.99255,-1.99255 1.10049,0 1.99256,0.89207 1.99256,1.99255 z"
           style="fill:#ffffff;fill-opacity:1;fill-rule:nonzero;stroke:#808080;stroke-width:0.79701;stroke-linecap:butt;stroke-linejoin:miter;stroke-miterlimit:10;stroke-dasharray:none;stroke-opacity:1"
           id="path672"
           inkscape:connector-curvature="0" /></g><g
         id="g674"
         transform="translate(161.575,99.213)"><g
           id="g676" /><g
           id="g678"
           transform="translate(-161.575,-99.213)" /></g></g><g
       id="g680"><g
         id="g682"
         transform="translate(144.906,95.683)"><g
           id="g684"><g
             id="g686"
             transform="translate(-199.683,-116.113)"><text
               transform="matrix(1,0,0,-1,200.207,116.113)"
               style="font-style:italic;font-variant:normal;font-size:10.47280025px;font-family:CharterBT;-inkscape-font-specification:CharterBT-Italic;writing-mode:lr-tb;fill:#808080;fill-opacity:1;fill-rule:nonzero;stroke:none"
               id="text688"><tspan
                 x="0"
                 y="0"
                 id="tspan690">M</tspan></text>
<g
               id="g692"
               transform="translate(199.683,116.113)" /></g></g><g
           id="g694"
           transform="translate(-144.906,-95.683)" /></g></g><path
       d="M 159.7263,0 141.73404,0"
       style="fill:none;stroke:#000000;stroke-width:0.75893873;stroke-linecap:butt;stroke-linejoin:miter;stroke-miterlimit:10;stroke-dasharray:none;stroke-opacity:1"
       id="path696"
       inkscape:connector-curvature="0" /><g
       id="g698"
       style="fill:#ffffff;fill-opacity:1;stroke:#000000;stroke-opacity:1"><g
         id="g700"
         style="fill:#ffffff;fill-opacity:1;stroke:#000000;stroke-opacity:1"><path
           d="m 163.56926,0 c 0,1.10046 -0.89207,1.99255 -1.99256,1.99255 -1.10046,0 -1.99255,-0.89209 -1.99255,-1.99255 0,-1.10046 0.89209,-1.99255 1.99255,-1.99255 1.10049,0 1.99256,0.89209 1.99256,1.99255 z"
           style="fill:#ffffff;fill-opacity:1;fill-rule:nonzero;stroke:#7f7f7f;stroke-width:0.79701;stroke-linecap:butt;stroke-linejoin:miter;stroke-miterlimit:10;stroke-dasharray:none;stroke-opacity:1"
           id="path702"
           inkscape:connector-curvature="0" /></g><g
         id="g704"
         transform="translate(161.575,0)"
         style="fill:#ffffff;fill-opacity:1;stroke:#000000;stroke-opacity:1"><g
           id="g706"
           style="fill:#ffffff;fill-opacity:1;stroke:#000000;stroke-opacity:1" /><g
           id="g708"
           transform="translate(-161.575,0)"
           style="fill:#ffffff;fill-opacity:1;stroke:#000000;stroke-opacity:1" /></g></g><g
       id="g710"><g
         id="g712"><path
           d="m 143.7266,0 c 0,1.10046 -0.89208,1.99255 -1.99256,1.99255 -1.10046,0 -1.99255,-0.89209 -1.99255,-1.99255 0,-1.10046 0.89209,-1.99255 1.99255,-1.99255 1.10048,0 1.99256,0.89209 1.99256,1.99255 z"
           style="fill:#ffffff;fill-opacity:1;fill-rule:nonzero;stroke:#7f7f7f;stroke-width:0.79701;stroke-linecap:butt;stroke-linejoin:miter;stroke-miterlimit:10;stroke-dasharray:none;stroke-opacity:1"
           id="path714"
           inkscape:connector-curvature="0" /></g><g
         id="g716"
         transform="translate(141.733,0)"><g
           id="g718" /><g
           id="g720"
           transform="translate(-141.733,0)" /></g></g><g
       id="g722"><g
         id="g724"
         transform="translate(141.733,6.28)"><g
           id="g726" /><g
           id="g728"
           transform="translate(-141.733,-6.28)" /></g></g></g></svg>