<?xml version="1.0" encoding="UTF-8" standalone="no"?>
<!-- Created with Inkscape (http://www.inkscape.org/) -->

<svg
   xmlns:dc="http://purl.org/dc/elements/1.1/"
   xmlns:cc="http://creativecommons.org/ns#"
   xmlns:rdf="http://www.w3.org/1999/02/22-rdf-syntax-ns#"
   xmlns:svg="http://www.w3.org/2000/svg"
   xmlns="http://www.w3.org/2000/svg"
   xmlns:sodipodi="http://sodipodi.sourceforge.net/DTD/sodipodi-0.dtd"
   xmlns:inkscape="http://www.inkscape.org/namespaces/inkscape"
   id="svg2"
   version="1.1"
   inkscape:version="0.91 r13725"
   xml:space="preserve"
   width="769.99878"
   height="607.97498"
   viewBox="0 0 769.99878 607.97498"
   sodipodi:docname="trig3d.svg"><metadata
     id="metadata8"><rdf:RDF><cc:Work
         rdf:about=""><dc:format>image/svg+xml</dc:format><dc:type
           rdf:resource="http://purl.org/dc/dcmitype/StillImage" /><dc:title></dc:title></cc:Work></rdf:RDF></metadata><defs
     id="defs6"><clipPath
       clipPathUnits="userSpaceOnUse"
       id="clipPath196"><path
         d="m 0,3510.6113 194.27463,0 0,161.3968 -194.27463,0 0,-161.3968 z"
         id="path198"
         inkscape:connector-curvature="0" /></clipPath></defs><sodipodi:namedview
     pagecolor="#ffffff"
     bordercolor="#666666"
     borderopacity="1"
     objecttolerance="10"
     gridtolerance="10"
     guidetolerance="10"
     inkscape:pageopacity="0"
     inkscape:pageshadow="2"
     inkscape:window-width="1366"
     inkscape:window-height="722"
     id="namedview4"
     showgrid="false"
     inkscape:zoom="0.54788856"
     inkscape:cx="179.15743"
     inkscape:cy="343.57779"
     inkscape:window-x="0"
     inkscape:window-y="24"
     inkscape:window-maximized="1"
     inkscape:current-layer="g78" /><g
     id="g10"
     inkscape:groupmode="layer"
     inkscape:label="trig3d"
     transform="matrix(1.25,0,0,-1.25,1.3725,606.6025)"><g
       id="g22"
       transform="scale(3,3)" /><g
       transform="matrix(3,0,0,3,-0.001,-10531.699)"
       id="g34"><g
         id="g36"><g
           id="g42"><g
             id="g44"><path
               inkscape:connector-curvature="0"
               id="path46"
               style="fill:none;stroke:#808080;stroke-width:0.19925;stroke-linecap:round;stroke-linejoin:miter;stroke-miterlimit:10;stroke-dasharray:none;stroke-opacity:1"
               d="m 42.3941,3589.8929 0,2.8335 m 60.75324,-2.8335 0,2.8335 m 60.75323,-2.8335 0,2.8335" /></g><g
             id="g48"><path
               inkscape:connector-curvature="0"
               id="path50"
               style="fill:none;stroke:#808080;stroke-width:0.19925;stroke-linecap:round;stroke-linejoin:miter;stroke-miterlimit:10;stroke-dasharray:none;stroke-opacity:1"
               d="m 12.01747,3589.1847 0,4.25 m 60.75325,-4.25 0,4.25 m 121.50648,-4.25 0,4.25" /></g></g><g
           id="g52"><g
             id="g54"><path
               inkscape:connector-curvature="0"
               id="path56"
               style="fill:none;stroke:#808080;stroke-width:0.19925;stroke-linecap:round;stroke-linejoin:miter;stroke-miterlimit:10;stroke-dasharray:none;stroke-opacity:1"
               d="m 132.10649,3522.1396 2.83499,0 m -2.83499,46.1134 2.83499,0 m -2.83499,46.1134 2.83499,0 m -2.83499,46.1134 2.83499,0" /></g><g
             id="g58"><path
               inkscape:connector-curvature="0"
               id="path60"
               style="fill:none;stroke:#808080;stroke-width:0.19925;stroke-linecap:round;stroke-linejoin:miter;stroke-miterlimit:10;stroke-dasharray:none;stroke-opacity:1"
               d="m 131.39795,3545.1963 4.25206,0 m -4.25206,92.2268 4.25206,0" /></g></g><path
           inkscape:connector-curvature="0"
           id="path62"
           style="fill:none;stroke:#000000;stroke-width:0.3985;stroke-linecap:round;stroke-linejoin:miter;stroke-miterlimit:10;stroke-dasharray:none;stroke-opacity:1"
           d="m 0,3591.3097 192.2821,0" /><g
           transform="translate(192.2821,3591.3097)"
           id="g64"><g
             id="g66"><path
               inkscape:connector-curvature="0"
               id="path68"
               style="fill:#000000;fill-opacity:1;fill-rule:nonzero;stroke:none"
               d="M 1.99252,0 -1.19551,1.59401 0,0 -1.19551,-1.59401" /></g></g><path
           inkscape:connector-curvature="0"
           id="path70"
           style="fill:none;stroke:#000000;stroke-width:0.3985;stroke-linecap:round;stroke-linejoin:miter;stroke-miterlimit:10;stroke-dasharray:none;stroke-opacity:1"
           d="m 133.52397,3510.6113 0,159.4043" /><g
           transform="matrix(0,1,-1,0,133.52397,3670.0156)"
           id="g72"><g
             id="g74"><path
               inkscape:connector-curvature="0"
               id="path76"
               style="fill:#000000;fill-opacity:1;fill-rule:nonzero;stroke:none"
               d="M 1.99252,0 -1.19551,1.59401 0,0 -1.19551,-1.59401" /></g></g><g
           id="g78"><g
             transform="translate(15.143663,3575.964)"
             id="g80"><g
               id="g82"><g
                 transform="translate(-5.176,-66.097)"
                 id="g84"><text
                   id="text86"
                   style="font-variant:normal;font-size:10.47280025px;font-family:MathDesign-CH-Regular-Symbol;-inkscape-font-specification:MathDesign-CH-Regular-Symbol-10;writing-mode:lr-tb;fill:#000000;fill-opacity:1;fill-rule:nonzero;stroke:none"
                   transform="matrix(1,0,0,-1,5.176,66.097)"><tspan
                     id="tspan88"
                     y="0"
                     x="0">−</tspan></text>
<text
                   id="text90"
                   style="font-variant:normal;font-size:10.47280025px;font-family:MathDesign-CH-Regular-Italic-MathItalic;-inkscape-font-specification:MathDesign-CH-Regular-Italic-MathItalic-10;writing-mode:lr-tb;fill:#000000;fill-opacity:1;fill-rule:nonzero;stroke:none"
                   transform="matrix(1,0,0,-1,12.832,66.097)"><tspan
                     id="tspan92"
                     y="0"
                     x="0">π</tspan></text>
<g
                   transform="translate(5.176,66.097)"
                   id="g94" /></g></g><g
               transform="translate(-4.477,-3575.964)"
               id="g96" /></g></g><g
           id="g98"><g
             transform="translate(61.907,3575.337)"
             id="g100"><g
               id="g102"><g
                 transform="translate(-62.606,-65.47)"
                 id="g104"><text
                   id="text106"
                   style="font-variant:normal;font-size:10.47280025px;font-family:MathDesign-CH-Regular-Symbol;-inkscape-font-specification:MathDesign-CH-Regular-Symbol-10;writing-mode:lr-tb;fill:#000000;fill-opacity:1;fill-rule:nonzero;stroke:none"
                   transform="matrix(1,0,0,-1,62.606,65.47)"><tspan
                     id="tspan108"
                     y="0"
                     x="0">−</tspan></text>
<text
                   id="text110"
                   style="font-variant:normal;font-weight:normal;font-size:7.65140009px;font-family:CharterBT;-inkscape-font-specification:CharterBT-Roman;writing-mode:lr-tb;fill:#000000;fill-opacity:1;fill-rule:nonzero;stroke:none"
                   transform="matrix(1,0,0,-1,71.457,70.329)"><tspan
                     id="tspan112"
                     y="0"
                     x="0">1</tspan></text>
<g
                   transform="translate(71.457,68.496)"
                   id="g114"><path
                     inkscape:connector-curvature="0"
                     id="path116"
                     style="fill:none;stroke:#000000;stroke-width:0.62800002;stroke-linecap:butt;stroke-linejoin:miter;stroke-miterlimit:10;stroke-dasharray:none;stroke-opacity:1"
                     d="M 0,0 4.254,0" /></g><text
                   id="text118"
                   style="font-variant:normal;font-weight:normal;font-size:7.65140009px;font-family:CharterBT;-inkscape-font-specification:CharterBT-Roman;writing-mode:lr-tb;fill:#000000;fill-opacity:1;fill-rule:nonzero;stroke:none"
                   transform="matrix(1,0,0,-1,71.457,61.993)"><tspan
                     id="tspan120"
                     y="0"
                     x="0">2</tspan></text>
<text
                   id="text122"
                   style="font-variant:normal;font-size:10.47280025px;font-family:MathDesign-CH-Regular-Italic-MathItalic;-inkscape-font-specification:MathDesign-CH-Regular-Italic-MathItalic-10;writing-mode:lr-tb;fill:#000000;fill-opacity:1;fill-rule:nonzero;stroke:none"
                   transform="matrix(1,0,0,-1,76.907,65.47)"><tspan
                     id="tspan124"
                     y="0"
                     x="0">π</tspan></text>
<g
                   transform="translate(62.606,65.47)"
                   id="g126" /></g></g><g
               transform="translate(-61.907,-3575.337)"
               id="g128" /></g></g><g
           id="g130"><g
             transform="translate(187.24,3575.337)"
             id="g132"><g
               id="g134"><g
                 transform="translate(-187.939,-65.47)"
                 id="g136"><text
                   id="text138"
                   style="font-variant:normal;font-weight:normal;font-size:7.65140009px;font-family:CharterBT;-inkscape-font-specification:CharterBT-Roman;writing-mode:lr-tb;fill:#000000;fill-opacity:1;fill-rule:nonzero;stroke:none"
                   transform="matrix(1,0,0,-1,189.134,70.329)"><tspan
                     id="tspan140"
                     y="0"
                     x="0">1</tspan></text>
<g
                   transform="translate(189.134,68.496)"
                   id="g142"><path
                     inkscape:connector-curvature="0"
                     id="path144"
                     style="fill:none;stroke:#000000;stroke-width:0.62800002;stroke-linecap:butt;stroke-linejoin:miter;stroke-miterlimit:10;stroke-dasharray:none;stroke-opacity:1"
                     d="M 0,0 4.254,0" /></g><text
                   id="text146"
                   style="font-variant:normal;font-weight:normal;font-size:7.65140009px;font-family:CharterBT;-inkscape-font-specification:CharterBT-Roman;writing-mode:lr-tb;fill:#000000;fill-opacity:1;fill-rule:nonzero;stroke:none"
                   transform="matrix(1,0,0,-1,189.134,61.993)"><tspan
                     id="tspan148"
                     y="0"
                     x="0">2</tspan></text>
<text
                   id="text150"
                   style="font-variant:normal;font-size:10.47280025px;font-family:MathDesign-CH-Regular-Italic-MathItalic;-inkscape-font-specification:MathDesign-CH-Regular-Italic-MathItalic-10;writing-mode:lr-tb;fill:#000000;fill-opacity:1;fill-rule:nonzero;stroke:none"
                   transform="matrix(1,0,0,-1,194.584,65.47)"><tspan
                     id="tspan152"
                     y="0"
                     x="0">π</tspan></text>
<g
                   transform="translate(187.939,65.47)"
                   id="g154" /></g></g><g
               transform="translate(-187.24,-3575.337)"
               id="g156" /></g></g><g
           id="g158"><g
             transform="translate(114.228,3541.629)"
             id="g160"><g
               id="g162"><g
                 transform="translate(-114.927,-31.762)"
                 id="g164"><text
                   id="text166"
                   style="font-variant:normal;font-size:10.47280025px;font-family:MathDesign-CH-Regular-Symbol;-inkscape-font-specification:MathDesign-CH-Regular-Symbol-10;writing-mode:lr-tb;fill:#000000;fill-opacity:1;fill-rule:nonzero;stroke:none"
                   transform="matrix(1,0,0,-1,114.927,31.762)"><tspan
                     id="tspan168"
                     y="0"
                     x="0">−</tspan></text>
<text
                   id="text170"
                   style="font-variant:normal;font-weight:normal;font-size:10.47280025px;font-family:CharterBT;-inkscape-font-specification:CharterBT-Roman;writing-mode:lr-tb;fill:#000000;fill-opacity:1;fill-rule:nonzero;stroke:none"
                   transform="matrix(1,0,0,-1,122.583,31.762)"><tspan
                     id="tspan172"
                     y="0"
                     x="0">2</tspan></text>
<g
                   transform="translate(114.927,31.762)"
                   id="g174" /></g></g><g
               transform="translate(-114.228,-3541.629)"
               id="g176" /></g></g><g
           id="g178"><g
             transform="translate(121.884,3633.782)"
             id="g180"><g
               id="g182"><g
                 transform="translate(-122.583,-123.915)"
                 id="g184"><text
                   id="text186"
                   style="font-variant:normal;font-weight:normal;font-size:10.47280025px;font-family:CharterBT;-inkscape-font-specification:CharterBT-Roman;writing-mode:lr-tb;fill:#000000;fill-opacity:1;fill-rule:nonzero;stroke:none"
                   transform="matrix(1,0,0,-1,122.583,123.915)"><tspan
                     id="tspan188"
                     y="0"
                     x="0">2</tspan></text>
<g
                   transform="translate(122.583,123.915)"
                   id="g190" /></g></g><g
               transform="translate(-121.884,-3633.782)"
               id="g192" /></g></g><g
           clip-path="url(#clipPath196)"
           id="g194"><g
             id="g200"><path
               inkscape:connector-curvature="0"
               id="path202"
               style="fill:none;stroke:#000000;stroke-width:0.79701;stroke-linecap:round;stroke-linejoin:miter;stroke-miterlimit:10;stroke-dasharray:none;stroke-opacity:1"
               d="M 11.88052,10141.484 C 604.71671,8217.743 -607.57715,-591.01992 23.76105,3514.1921 c 0.41209,2.6654 1.07296,6.2879 1.48506,8.3718 0.41209,2.0839 1.07298,4.9754 1.48508,6.6472 0.41209,1.6719 1.07296,4.033 1.48506,5.4022 0.41209,1.3692 1.07297,3.3264 1.48506,4.466 0.41209,1.1395 1.07298,2.7852 1.48508,3.7468 0.41209,0.9616 1.07296,2.3631 1.48506,3.184 0.41209,0.8208 1.07297,2.0249 1.48506,2.7321 0.41209,0.7074 1.07297,1.7515 1.48506,2.3657 0.41211,0.6142 1.07298,1.5238 1.48508,2.0613 0.41209,0.5374 1.07297,1.339 1.48506,1.8122 0.41209,0.4731 1.07297,1.1798 1.48506,1.598 0.4121,0.4181 1.07298,1.0442 1.48508,1.4156 0.41209,0.3715 1.07297,0.9309 1.48506,1.2613 0.41209,0.3305 1.07299,0.8253 1.48508,1.1206 0.41209,0.2952 1.07296,0.7433 1.48506,1.0076 0.41211,0.2642 1.07298,0.6601 1.48508,0.8968 0.41209,0.2366 1.07297,0.5964 1.48506,0.8091 0.41209,0.2127 1.07296,0.5331 1.48506,0.7241 0.41209,0.191 1.07298,0.4814 1.48508,0.6526 0.41209,0.1711 1.07297,0.4282 1.48506,0.5808 0.41209,0.1526 1.07296,0.3823 1.48506,0.519 0.41209,0.1366 1.07297,0.3445 1.48508,0.4658 0.41209,0.1212 1.07297,0.3016 1.48506,0.4081 0.41209,0.1065 1.07296,0.2655 1.48506,0.3595 0.41209,0.094 1.07297,0.2362 1.48506,0.3184 0.41209,0.082 1.07299,0.2041 1.48508,0.2744 0.41209,0.07 1.07297,0.1731 1.48506,0.2326 0.41209,0.059 1.07297,0.1473 1.48506,0.196 0.41209,0.049 1.07297,0.1167 1.48508,0.1548 0.41209,0.038 1.07297,0.091 1.48506,0.1196 0.41209,0.029 1.07297,0.068 1.48506,0.088 0.41209,0.019 1.07297,0.041 1.48506,0.051 0.4121,0.01 1.48508,0.018 1.48508,0.018"
               sodipodi:nodetypes="ccscscscccccccccccsscsccsscccccccsc" /></g><g
             id="g204"><path
               inkscape:connector-curvature="0"
               id="path206"
               style="fill:none;stroke:#000000;stroke-width:0.79701;stroke-linecap:round;stroke-linejoin:miter;stroke-miterlimit:10;stroke-dasharray:none;stroke-opacity:1"
               d="m 145.17781,3669.006 c 0.41284,-2.7124 1.07492,-6.3911 1.48778,-8.508 0.41286,-2.1168 1.07495,-5.0527 1.48779,-6.7485 0.41284,-1.6958 1.07494,-4.0874 1.48778,-5.4736 0.41283,-1.3862 1.07492,-3.3644 1.48778,-4.517 0.41286,-1.1526 1.07493,-2.8189 1.48779,-3.7905 0.41286,-0.9715 1.07495,-2.3835 1.48777,-3.2117 0.41285,-0.8282 1.07494,-2.0438 1.48779,-2.7575 0.41284,-0.7137 1.07493,-1.7671 1.48779,-2.3864 0.41286,-0.6194 1.07492,-1.5362 1.48778,-2.0775 0.41285,-0.5413 1.07494,-1.3475 1.48779,-1.8238 0.41284,-0.4763 1.07493,-1.1879 1.48778,-1.6092 0.41282,-0.4213 1.07492,-1.0537 1.48777,-1.4273 0.41286,-0.3737 1.07496,-0.9335 1.4878,-1.2659 0.41284,-0.3323 1.07493,-0.8325 1.48776,-1.1297 0.41284,-0.2971 1.07494,-0.746 1.48779,-1.0121 0.41286,-0.2662 1.07494,-0.668 1.4878,-0.9063 0.41285,-0.2384 1.07493,-0.598 1.48777,-0.8117 0.41285,-0.2136 1.07494,-0.5369 1.48778,-0.7282 0.41284,-0.1913 1.07494,-0.4793 1.4878,-0.6505 0.41284,-0.1712 1.07493,-0.4298 1.48777,-0.5833 0.41284,-0.1536 1.07493,-0.386 1.48778,-0.5232 0.41284,-0.1372 1.07494,-0.3442 1.48778,-0.4658 0.41285,-0.1216 1.07495,-0.3027 1.48779,-0.4106 0.41284,-0.1078 1.07494,-0.2716 1.48778,-0.3666 0.41284,-0.095 1.07493,-0.2358 1.48778,-0.318 0.41284,-0.082 1.07493,-0.2044 1.48777,-0.2744 0.41285,-0.07 1.07494,-0.171 1.4878,-0.2305 0.41284,-0.059 1.07493,-0.1491 1.48777,-0.1984 0.41285,-0.049 1.07494,-0.1186 1.48778,-0.1569 0.41284,-0.038 1.07494,-0.091 1.48778,-0.1196 0.41286,-0.028 1.07495,-0.066 1.48779,-0.085 0.41284,-0.019 1.07494,-0.043 1.48778,-0.053 0.41284,-0.01 1.48778,-0.018 1.48778,-0.018"
               sodipodi:nodetypes="cssssccscsscccccccsccsscscsccccssc" /></g></g></g><g
         transform="translate(-0.199,3510.367)"
         id="g208" /></g><g
       transform="matrix(3,0,0,3,1.196,1.196)"
       id="g210" /><path
       inkscape:connector-curvature="0"
       id="path218"
       style="fill:none;stroke:#cc6600;stroke-width:1.19553006;stroke-linecap:round;stroke-linejoin:miter;stroke-miterlimit:10;stroke-dasharray:none;stroke-opacity:1"
       d="m 472.82458,242.3657 c 0,38.04328 -30.83929,68.88258 -68.88256,68.88258 -38.04326,0 -68.88257,-30.8393 -68.88257,-68.88258 0,-38.04325 30.83931,-68.88256 68.88257,-68.88256 38.04327,0 68.88256,30.83931 68.88256,68.88256 z" /><path
       inkscape:connector-curvature="0"
       id="path222"
       style="fill:#ccffcc;fill-opacity:0.7;fill-rule:nonzero;stroke:#008000;stroke-width:0.3985;stroke-linecap:round;stroke-linejoin:miter;stroke-miterlimit:10;stroke-dasharray:none;stroke-opacity:0.7"
       d="m 400.54095,242.3657 33.16575,0 c 0,7.42884 -0.97582,14.83564 -2.89759,22.01014" /><path
       inkscape:connector-curvature="0"
       id="path226"
       style="fill:none;stroke:#008000;stroke-width:1.19553006;stroke-linecap:round;stroke-linejoin:miter;stroke-miterlimit:10;stroke-dasharray:none;stroke-opacity:1"
       d="m 487.28127,242.3657 0,102.89822" /><g
       id="g228"
       transform="translate(0.73007547,-9.8560188)"><g
         transform="translate(488.374,291.3)"
         id="g230"><g
           id="g232"><g
             transform="translate(-489.472,-292.398)"
             id="g234"><text
               id="text236"
               style="font-variant:normal;font-weight:normal;font-size:10.47280025px;font-family:CharterBT;-inkscape-font-specification:CharterBT-Roman;writing-mode:lr-tb;fill:#008000;fill-opacity:1;fill-rule:nonzero;stroke:none"
               transform="matrix(1,0,0,-1,489.472,292.398)"><tspan
                 id="tspan238"
                 sodipodi:role="line"
                 y="0"
                 x="0 4.6708689 8.8599892">csc</tspan></text>
<text
               id="text240"
               style="font-variant:normal;font-size:10.47280025px;font-family:MathDesign-CH-Regular-Italic-MathItalic;-inkscape-font-specification:MathDesign-CH-Regular-Italic-MathItalic-10;writing-mode:lr-tb;fill:#008000;fill-opacity:1;fill-rule:nonzero;stroke:none"
               transform="matrix(1,0,0,-1,504.464,292.398)"><tspan
                 id="tspan242"
                 y="0"
                 x="0">α</tspan></text>
<g
               transform="translate(489.472,292.398)"
               id="g244" /></g></g><g
           transform="translate(-488.374,-291.3)"
           id="g246" /></g></g><path
       inkscape:connector-curvature="0"
       id="path250"
       style="fill:none;stroke:#0000ff;stroke-width:1.19553006;stroke-linecap:round;stroke-linejoin:miter;stroke-miterlimit:10;stroke-dasharray:none;stroke-opacity:1"
       d="m 400.74202,242.3657 0,68.88253" /><g
       id="g252"
       transform="translate(-3.2,0)"><g
         id="g254"><path
           inkscape:connector-curvature="0"
           id="path256"
           style="fill:#ffffff;fill-opacity:1;fill-rule:nonzero;stroke:none"
           d="m 388.54758,269.68486 12.80414,0 0,14.24416 -12.80414,0 0,-14.24416 z" /></g><g
         transform="translate(392.033,273.245)"
         id="g258"><g
           id="g260"><g
             transform="translate(-393.131,-274.343)"
             id="g262"><text
               id="text264"
               style="font-variant:normal;font-weight:normal;font-size:10.47280025px;font-family:CharterBT;-inkscape-font-specification:CharterBT-Roman;writing-mode:lr-tb;fill:#0000ff;fill-opacity:1;fill-rule:nonzero;stroke:none"
               transform="matrix(1,0,0,-1,393.131,274.343)"><tspan
                 id="tspan266"
                 y="0"
                 x="0">1</tspan></text>
<g
               transform="translate(393.131,274.343)"
               id="g268" /></g></g><g
           transform="translate(-392.033,-273.245)"
           id="g270" /></g></g><path
       inkscape:connector-curvature="0"
       id="path274"
       style="fill:none;stroke:#008000;stroke-width:1.19553006;stroke-linecap:round;stroke-linejoin:miter;stroke-miterlimit:10;stroke-dasharray:none;stroke-opacity:1"
       d="m 403.94202,242.3657 76.53584,68.88253" /><g
       id="g276"><g
         id="g278" /><g
         transform="translate(417.261,279.968)"
         id="g280"><g
           id="g282"><g
             transform="translate(-418.359,-281.066)"
             id="g284"><text
               id="text286"
               style="font-variant:normal;font-weight:normal;font-size:10.47280025px;font-family:CharterBT;-inkscape-font-specification:CharterBT-Roman;writing-mode:lr-tb;fill:#008000;fill-opacity:1;fill-rule:nonzero;stroke:none"
               transform="matrix(1,0,0,-1,418.359,281.066)"><tspan
                 id="tspan288"
                 sodipodi:role="line"
                 y="0"
                 x="0 4.6708689 8.8599892">csc</tspan></text>
<text
               id="text290"
               style="font-variant:normal;font-size:10.47280025px;font-family:MathDesign-CH-Regular-Italic-MathItalic;-inkscape-font-specification:MathDesign-CH-Regular-Italic-MathItalic-10;writing-mode:lr-tb;fill:#008000;fill-opacity:1;fill-rule:nonzero;stroke:none"
               transform="matrix(1,0,0,-1,433.35,281.066)"><tspan
                 id="tspan292"
                 y="0"
                 x="0">α</tspan></text>
<g
               transform="translate(418.359,281.066)"
               id="g294" /></g></g><g
           transform="translate(-417.261,-279.968)"
           id="g296" /></g></g><path
       inkscape:connector-curvature="0"
       id="path300"
       style="fill:none;stroke:#ff0000;stroke-width:1.21975303;stroke-linecap:round;stroke-linejoin:miter;stroke-miterlimit:10;stroke-dasharray:none;stroke-opacity:1"
       d="m 400.76671,311.24823 79.66868,0" /><g
       id="g302"><g
         id="g304"><path
           inkscape:connector-curvature="0"
           id="path306"
           style="fill:#ffffff;fill-opacity:1;fill-rule:nonzero;stroke:none"
           d="m 417.47789,304.71526 29.11565,0 0,13.06593 -29.11565,0 0,-13.06593 z" /></g><g
         transform="translate(420.963,308.275)"
         id="g308"><g
           id="g310"><g
             transform="translate(-422.061,-309.373)"
             id="g312"><text
               id="text314"
               style="font-variant:normal;font-weight:normal;font-size:10.47280025px;font-family:CharterBT;-inkscape-font-specification:CharterBT-Roman;writing-mode:lr-tb;fill:#ff0000;fill-opacity:1;fill-rule:nonzero;stroke:none"
               transform="matrix(1,0,0,-1,422.061,309.373)"><tspan
                 id="tspan316"
                 sodipodi:role="line"
                 y="0"
                 x="0 4.6708689 10.315708">cot</tspan></text>
<text
               id="text318"
               style="font-variant:normal;font-size:10.47280025px;font-family:MathDesign-CH-Regular-Italic-MathItalic;-inkscape-font-specification:MathDesign-CH-Regular-Italic-MathItalic-10;writing-mode:lr-tb;fill:#ff0000;fill-opacity:1;fill-rule:nonzero;stroke:none"
               transform="matrix(1,0,0,-1,437.335,309.373)"><tspan
                 id="tspan320"
                 y="0"
                 x="0">α</tspan></text>
<g
               transform="translate(422.061,309.373)"
               id="g322" /></g></g><g
           transform="translate(-420.963,-308.275)"
           id="g324" /></g></g><g
       id="g328" /><g
       transform="translate(483.845,230.468)"
       id="g330"><g
         id="g332"><g
           transform="translate(-484.943,-231.566)"
           id="g334"><text
             id="text336"
             style="font-variant:normal;font-size:10.47280025px;font-family:MathDesign-CH-Regular-Italic-MathItalic;-inkscape-font-specification:MathDesign-CH-Regular-Italic-MathItalic-10;writing-mode:lr-tb;fill:#008000;fill-opacity:1;fill-rule:nonzero;stroke:none"
             transform="matrix(1,0,0,-1,484.943,231.566)"><tspan
               id="tspan338"
               y="0"
               x="0">α</tspan></text>
<g
             transform="translate(484.943,231.566)"
             id="g340" /></g></g><g
         transform="translate(-483.845,-230.468)"
         id="g342" /></g><g
       id="g346" /><g
       transform="translate(421.767,247.476)"
       id="g348"><g
         id="g350"><g
           transform="translate(-422.865,-248.574)"
           id="g352"><text
             id="text354"
             style="font-variant:normal;font-size:10.47280025px;font-family:MathDesign-CH-Regular-Italic-MathItalic;-inkscape-font-specification:MathDesign-CH-Regular-Italic-MathItalic-10;writing-mode:lr-tb;fill:#008000;fill-opacity:1;fill-rule:nonzero;stroke:none"
             transform="matrix(1,0,0,-1,422.865,248.574)"><tspan
               id="tspan356"
               y="0"
               x="0">α</tspan></text>
<g
             transform="translate(422.865,248.574)"
             id="g358" /></g></g><g
         transform="translate(-421.767,-247.476)"
         id="g360" /></g><path
       style="fill:none;fill-rule:evenodd;stroke:#000000;stroke-width:2.4000001;stroke-linecap:butt;stroke-linejoin:miter;stroke-miterlimit:4;stroke-dasharray:2.4, 4.8;stroke-dashoffset:0;stroke-opacity:1"
       d="m 45.2435,483.67213 0,-487.69041"
       id="path5147"
       inkscape:connector-curvature="0" /></g></svg>