<?xml version="1.0" encoding="UTF-8" standalone="no"?>
<!-- Created with Inkscape (http://www.inkscape.org/) -->

<svg
   xmlns:dc="http://purl.org/dc/elements/1.1/"
   xmlns:cc="http://creativecommons.org/ns#"
   xmlns:rdf="http://www.w3.org/1999/02/22-rdf-syntax-ns#"
   xmlns:svg="http://www.w3.org/2000/svg"
   xmlns="http://www.w3.org/2000/svg"
   xmlns:sodipodi="http://sodipodi.sourceforge.net/DTD/sodipodi-0.dtd"
   xmlns:inkscape="http://www.inkscape.org/namespaces/inkscape"
   id="svg2"
   version="1.1"
   inkscape:version="0.91 r13725"
   xml:space="preserve"
   width="764.20752"
   height="682.43628"
   viewBox="0 0 764.20752 682.43628"
   sodipodi:docname="trig3c.svg"><metadata
     id="metadata8"><rdf:RDF><cc:Work
         rdf:about=""><dc:format>image/svg+xml</dc:format><dc:type
           rdf:resource="http://purl.org/dc/dcmitype/StillImage" /><dc:title></dc:title></cc:Work></rdf:RDF></metadata><defs
     id="defs6"><clipPath
       clipPathUnits="userSpaceOnUse"
       id="clipPath164"><path
         d="m 0,382.81012 194.27203,0 0,161.39682 -194.27203,0 0,-161.39682 z"
         id="path166"
         inkscape:connector-curvature="0" /></clipPath></defs><sodipodi:namedview
     pagecolor="#ffffff"
     bordercolor="#666666"
     borderopacity="1"
     objecttolerance="10"
     gridtolerance="10"
     guidetolerance="10"
     inkscape:pageopacity="0"
     inkscape:pageshadow="2"
     inkscape:window-width="1366"
     inkscape:window-height="722"
     id="namedview4"
     showgrid="false"
     inkscape:zoom="0.4881079"
     inkscape:cx="221.4945"
     inkscape:cy="137.62456"
     inkscape:window-x="0"
     inkscape:window-y="24"
     inkscape:window-maximized="1"
     inkscape:current-layer="g44" /><g
     id="g10"
     inkscape:groupmode="layer"
     inkscape:label="trig3c"
     transform="matrix(1.25,0,0,-1.25,34.325,681.06375)"><path
       inkscape:connector-curvature="0"
       id="path18"
       style="fill:none;stroke:#808080;stroke-width:0.19925;stroke-linecap:round;stroke-linejoin:miter;stroke-miterlimit:10;stroke-dasharray:none;stroke-opacity:1"
       d="M 0,0 544.25821,0 M 0,42.52019 l 544.25821,0 M 0,85.04037 l 544.25821,0 M 0,127.56056 l 544.25821,0 M 0,170.08076 l 544.25821,0 M 0,212.60095 l 544.25821,0 M 0,255.12114 l 544.25821,0 M 0,297.64134 l 544.25821,0 M 0,340.16153 l 544.25821,0 M 0,382.68172 l 544.25821,0 M 0,425.20192 l 544.25821,0 M 0,467.7221 l 544.25821,0 M 0,510.2423 l 544.25821,0 M 0,0 0,544.25821 M 42.52019,0 l 0,544.25821 M 85.04037,0 l 0,544.25821 M 127.56056,0 l 0,544.25821 M 170.08076,0 l 0,544.25821 M 212.60095,0 l 0,544.25821 M 255.12114,0 l 0,544.25821 M 297.64134,0 l 0,544.25821 M 340.16153,0 l 0,544.25821 M 382.68172,0 l 0,544.25821 M 425.20192,0 l 0,544.25821 M 467.7221,0 l 0,544.25821 M 510.2423,0 l 0,544.25821" /><g
       id="g26"
       transform="scale(3,3)" /><g
       id="g44"
       transform="matrix(3,0,0,3,0.001,-1148.416)"><g
         id="g46"><g
           id="g48"><path
             d="m 55.34344,462.09175 0,2.83355 m 81.7239,-2.83355 0,2.83355"
             style="fill:none;stroke:#808080;stroke-width:0.19925;stroke-linecap:round;stroke-linejoin:miter;stroke-miterlimit:10;stroke-dasharray:none;stroke-opacity:1"
             id="path50"
             inkscape:connector-curvature="0" /></g><g
           id="g52"><path
             d="m 96.2054,461.38354 0,4.24996 m 81.72389,-4.24996 0,4.24996"
             style="fill:none;stroke:#808080;stroke-width:0.19925;stroke-linecap:round;stroke-linejoin:miter;stroke-miterlimit:10;stroke-dasharray:none;stroke-opacity:1"
             id="path54"
             inkscape:connector-curvature="0" /></g></g><g
         id="g56"><g
           id="g58"><path
             d="m 13.06395,394.33846 2.83515,0 m -2.83515,46.11338 2.83515,0 m -2.83515,46.11338 2.83515,0 m -2.83515,46.11337 2.83515,0"
             style="fill:none;stroke:#808080;stroke-width:0.19925;stroke-linecap:round;stroke-linejoin:miter;stroke-miterlimit:10;stroke-dasharray:none;stroke-opacity:1"
             id="path60"
             inkscape:connector-curvature="0" /></g><g
           id="g62"><path
             d="m 12.35538,417.39514 4.25227,0 m -4.25227,92.22676 4.25227,0"
             style="fill:none;stroke:#808080;stroke-width:0.19925;stroke-linecap:round;stroke-linejoin:miter;stroke-miterlimit:10;stroke-dasharray:none;stroke-opacity:1"
             id="path64"
             inkscape:connector-curvature="0" /></g></g><path
         d="m 0,463.50853 192.27951,0"
         style="fill:none;stroke:#000000;stroke-width:0.3985;stroke-linecap:round;stroke-linejoin:miter;stroke-miterlimit:10;stroke-dasharray:none;stroke-opacity:1"
         id="path66"
         inkscape:connector-curvature="0" /><g
         id="g68"
         transform="translate(192.27951,463.50853)"><g
           id="g70"><path
             d="M 1.99252,0 -1.19551,1.59401 0,0 -1.19551,-1.59401"
             style="fill:#000000;fill-opacity:1;fill-rule:nonzero;stroke:none"
             id="path72"
             inkscape:connector-curvature="0" /></g></g><path
         d="m 14.48152,382.81012 0,159.4043"
         style="fill:none;stroke:#000000;stroke-width:0.3985;stroke-linecap:round;stroke-linejoin:miter;stroke-miterlimit:10;stroke-dasharray:none;stroke-opacity:1"
         id="path74"
         inkscape:connector-curvature="0" /><g
         id="g76"
         transform="matrix(0,1,-1,0,14.48152,542.21442)"><g
           id="g78"><path
             d="M 1.99252,0 -1.19551,1.59401 0,0 -1.19551,-1.59401"
             style="fill:#000000;fill-opacity:1;fill-rule:nonzero;stroke:none"
             id="path80"
             inkscape:connector-curvature="0" /></g></g><g
         id="g82"><g
           id="g84"
           transform="translate(89.169,447.576)"><g
             id="g86"><g
               id="g88"
               transform="translate(-100.022,-65.47)"><text
                 transform="matrix(1,0,0,-1,101.217,70.329)"
                 style="font-variant:normal;font-weight:normal;font-size:7.65140009px;font-family:CharterBT;-inkscape-font-specification:CharterBT-Roman;writing-mode:lr-tb;fill:#000000;fill-opacity:1;fill-rule:nonzero;stroke:none"
                 id="text90"><tspan
                   x="0"
                   y="0"
                   id="tspan92">1</tspan></text>
<g
                 id="g94"
                 transform="translate(101.217,68.496)"><path
                   d="M 0,0 4.254,0"
                   style="fill:none;stroke:#000000;stroke-width:0.62800002;stroke-linecap:butt;stroke-linejoin:miter;stroke-miterlimit:10;stroke-dasharray:none;stroke-opacity:1"
                   id="path96"
                   inkscape:connector-curvature="0" /></g><text
                 transform="matrix(1,0,0,-1,101.217,61.993)"
                 style="font-variant:normal;font-weight:normal;font-size:7.65140009px;font-family:CharterBT;-inkscape-font-specification:CharterBT-Roman;writing-mode:lr-tb;fill:#000000;fill-opacity:1;fill-rule:nonzero;stroke:none"
                 id="text98"><tspan
                   x="0"
                   y="0"
                   id="tspan100">2</tspan></text>
<text
                 transform="matrix(1,0,0,-1,106.667,65.47)"
                 style="font-variant:normal;font-size:10.47280025px;font-family:MathDesign-CH-Regular-Italic-MathItalic;-inkscape-font-specification:MathDesign-CH-Regular-Italic-MathItalic-10;writing-mode:lr-tb;fill:#000000;fill-opacity:1;fill-rule:nonzero;stroke:none"
                 id="text102"><tspan
                   x="0"
                   y="0"
                   id="tspan104">π</tspan></text>
<g
                 id="g106"
                 transform="translate(100.022,65.47)" /></g></g><g
             id="g108"
             transform="translate(-89.169,-447.576)" /></g></g><g
         id="g110"
         transform="translate(3.7333332,0)"><g
           id="g112"
           transform="translate(174.214,448.203)"><g
             id="g114"><g
               id="g116"
               transform="translate(-185.067,-66.097)"><text
                 transform="matrix(1,0,0,-1,185.067,66.097)"
                 style="font-variant:normal;font-size:10.47280025px;font-family:MathDesign-CH-Regular-Italic-MathItalic;-inkscape-font-specification:MathDesign-CH-Regular-Italic-MathItalic-10;writing-mode:lr-tb;fill:#000000;fill-opacity:1;fill-rule:nonzero;stroke:none"
                 id="text118"><tspan
                   x="0"
                   y="0"
                   id="tspan120">π</tspan></text>
<g
                 id="g122"
                 transform="translate(185.067,66.097)" /></g></g><g
             id="g124"
             transform="translate(-174.214,-448.203)" /></g></g><g
         id="g126"><g
           id="g128"
           transform="translate(-4.813,413.868)"><g
             id="g130"><g
               id="g132"
               transform="translate(-6.04,-31.762)"><text
                 transform="matrix(1,0,0,-1,6.04,31.762)"
                 style="font-variant:normal;font-size:10.47280025px;font-family:MathDesign-CH-Regular-Symbol;-inkscape-font-specification:MathDesign-CH-Regular-Symbol-10;writing-mode:lr-tb;fill:#000000;fill-opacity:1;fill-rule:nonzero;stroke:none"
                 id="text134"><tspan
                   x="0"
                   y="0"
                   id="tspan136">−</tspan></text>
<text
                 transform="matrix(1,0,0,-1,13.695,31.762)"
                 style="font-variant:normal;font-weight:normal;font-size:10.47280025px;font-family:CharterBT;-inkscape-font-specification:CharterBT-Roman;writing-mode:lr-tb;fill:#000000;fill-opacity:1;fill-rule:nonzero;stroke:none"
                 id="text138"><tspan
                   x="0"
                   y="0"
                   id="tspan140">2</tspan></text>
<g
                 id="g142"
                 transform="translate(6.04,31.762)" /></g></g><g
             id="g144"
             transform="translate(4.813,-413.868)" /></g></g><g
         id="g146"><g
           id="g148"
           transform="translate(2.842,506.021)"><g
             id="g150"><g
               id="g152"
               transform="translate(-13.695,-123.915)"><text
                 transform="matrix(1,0,0,-1,13.695,123.915)"
                 style="font-variant:normal;font-weight:normal;font-size:10.47280025px;font-family:CharterBT;-inkscape-font-specification:CharterBT-Roman;writing-mode:lr-tb;fill:#000000;fill-opacity:1;fill-rule:nonzero;stroke:none"
                 id="text154"><tspan
                   x="0"
                   y="0"
                   id="tspan156">2</tspan></text>
<g
                 id="g158"
                 transform="translate(13.695,123.915)" /></g></g><g
             id="g160"
             transform="translate(-2.842,-506.021)" /></g></g><g
         id="g162"
         clip-path="url(#clipPath164)"
         transform="matrix(0.99908488,0,0,1.0126938,0.02621645,-4.8593075)"><path
           style="fill:none;fill-rule:evenodd;stroke:#000000;stroke-width:0.9066667;stroke-linecap:butt;stroke-linejoin:miter;stroke-miterlimit:4;stroke-dasharray:none;stroke-opacity:1"
           d="m 29.091195,544.11079 c 7.209123,-33.45696 13.362275,-61.19383 66.831932,-80.35285 64.460543,-28.5137 60.112163,-51.28917 62.968813,-71.85397"
           id="path5084"
           inkscape:connector-curvature="0"
           sodipodi:nodetypes="ccc" /><path
           style="fill:none;fill-rule:evenodd;stroke:#000000;stroke-width:0.72000003;stroke-linecap:butt;stroke-linejoin:miter;stroke-miterlimit:4;stroke-dasharray:0.72, 1.44;stroke-dashoffset:0;stroke-opacity:1"
           d="m 177.53787,540.88723 0,-160.07389"
           id="path5086"
           inkscape:connector-curvature="0" /></g></g><g
       transform="matrix(3,0,0,3,49.822,1.196)"
       id="g174" /><path
       inkscape:connector-curvature="0"
       id="path182"
       style="fill:none;stroke:#cc6600;stroke-width:1.19553006;stroke-linecap:round;stroke-linejoin:miter;stroke-miterlimit:10;stroke-dasharray:none;stroke-opacity:1"
       d="m 111.40276,242.3657 c 0,38.04328 -30.8393,68.88258 -68.88257,68.88258 -38.04328,0 -68.88256,-30.8393 -68.88256,-68.88258 0,-38.04325 30.83928,-68.88256 68.88256,-68.88256 38.04327,0 68.88257,30.83931 68.88257,68.88256 z" /><path
       inkscape:connector-curvature="0"
       id="path186"
       style="fill:#ccffcc;fill-opacity:0.7;fill-rule:nonzero;stroke:#008000;stroke-width:0.3985;stroke-linecap:round;stroke-linejoin:miter;stroke-miterlimit:10;stroke-dasharray:none;stroke-opacity:0.7"
       d="m 42.52019,242.3657 42.52023,0 c 0,12.61416 -1.65692,25.19086 -4.92007,37.37315" /><path
       inkscape:connector-curvature="0"
       id="path190"
       style="fill:none;stroke:#ff0000;stroke-width:1.19553006;stroke-linecap:round;stroke-linejoin:miter;stroke-miterlimit:10;stroke-dasharray:none;stroke-opacity:1"
       d="m 189.63977,242.3657 0,51.02348" /><g
       id="g192"><g
         transform="translate(190.737,264.905)"
         id="g194"><g
           id="g196"><g
             transform="translate(-218.197,-266.003)"
             id="g198"><text
               id="text200"
               style="font-variant:normal;font-weight:normal;font-size:10.47280025px;font-family:CharterBT;-inkscape-font-specification:CharterBT-Roman;writing-mode:lr-tb;fill:#ff0000;fill-opacity:1;fill-rule:nonzero;stroke:none"
               transform="matrix(1,0,0,-1,218.197,266.003)"><tspan
                 id="tspan202"
                 sodipodi:role="line"
                 y="0"
                 x="0 4.6708689 10.315708">cot</tspan></text>
<text
               id="text204"
               style="font-variant:normal;font-size:10.47280025px;font-family:MathDesign-CH-Regular-Italic-MathItalic;-inkscape-font-specification:MathDesign-CH-Regular-Italic-MathItalic-10;writing-mode:lr-tb;fill:#ff0000;fill-opacity:1;fill-rule:nonzero;stroke:none"
               transform="matrix(1,0,0,-1,233.471,266.003)"><tspan
                 id="tspan206"
                 y="0"
                 x="0">α</tspan></text>
<g
               transform="translate(218.197,266.003)"
               id="g208" /></g></g><g
           transform="translate(-190.737,-264.905)"
           id="g210" /></g></g><path
       inkscape:connector-curvature="0"
       id="path214"
       style="fill:none;stroke:#0000ff;stroke-width:1.19553006;stroke-linecap:round;stroke-linejoin:miter;stroke-miterlimit:10;stroke-dasharray:none;stroke-opacity:1"
       d="m 42.52019,242.3657 0,68.88253" /><g
       id="g216"><g
         id="g218"><path
           inkscape:connector-curvature="0"
           id="path220"
           style="fill:#ffffff;fill-opacity:1;fill-rule:nonzero;stroke:none"
           d="m 27.12573,269.68486 12.80414,0 0,14.24416 -12.80414,0 0,-14.24416 z" /></g><g
         transform="translate(30.616,273.245)"
         id="g222"><g
           id="g224"><g
             transform="translate(-58.076,-274.343)"
             id="g226"><text
               id="text228"
               style="font-variant:normal;font-weight:normal;font-size:10.47280025px;font-family:CharterBT;-inkscape-font-specification:CharterBT-Roman;writing-mode:lr-tb;fill:#0000ff;fill-opacity:1;fill-rule:nonzero;stroke:none"
               transform="matrix(1,0,0,-1,58.076,274.343)"><tspan
                 id="tspan230"
                 y="0"
                 x="0">1</tspan></text>
<g
               transform="translate(58.076,274.343)"
               id="g232" /></g></g><g
           transform="translate(-30.616,-273.245)"
           id="g234" /></g></g><path
       inkscape:connector-curvature="0"
       id="path238"
       style="fill:none;stroke:#008000;stroke-width:1.19553006;stroke-linecap:round;stroke-linejoin:miter;stroke-miterlimit:10;stroke-dasharray:none;stroke-opacity:1"
       d="m 42.52019,242.3657 68.03261,68.88253" /><g
       id="g240"><g
         id="g242" /><g
         transform="translate(51.592,279.968)"
         id="g244"><g
           id="g246"><g
             transform="translate(-79.052,-281.066)"
             id="g248"><text
               id="text250"
               style="font-variant:normal;font-weight:normal;font-size:10.47280025px;font-family:CharterBT;-inkscape-font-specification:CharterBT-Roman;writing-mode:lr-tb;fill:#008000;fill-opacity:1;fill-rule:nonzero;stroke:none"
               transform="matrix(1,0,0,-1,79.052,281.066)"><tspan
                 id="tspan252"
                 sodipodi:role="line"
                 y="0"
                 x="0 4.6708689 8.8599892">csc</tspan></text>
<text
               id="text254"
               style="font-variant:normal;font-size:10.47280025px;font-family:MathDesign-CH-Regular-Italic-MathItalic;-inkscape-font-specification:MathDesign-CH-Regular-Italic-MathItalic-10;writing-mode:lr-tb;fill:#008000;fill-opacity:1;fill-rule:nonzero;stroke:none"
               transform="matrix(1,0,0,-1,94.044,281.066)"><tspan
                 id="tspan256"
                 y="0"
                 x="0">α</tspan></text>
<g
               transform="translate(79.052,281.066)"
               id="g258" /></g></g><g
           transform="translate(-51.592,-279.968)"
           id="g260" /></g></g><path
       inkscape:connector-curvature="0"
       id="path264"
       style="fill:none;stroke:#ff0000;stroke-width:1.19553006;stroke-linecap:round;stroke-linejoin:miter;stroke-miterlimit:10;stroke-dasharray:none;stroke-opacity:1"
       d="m 42.52019,311.24823 68.03261,0" /><g
       id="g266"><g
         id="g268"><path
           inkscape:connector-curvature="0"
           id="path270"
           style="fill:#ffffff;fill-opacity:1;fill-rule:nonzero;stroke:none"
           d="m 51.80444,304.71526 29.11565,0 0,13.06593 -29.11565,0 0,-13.06593 z" /></g><g
         transform="translate(55.294,308.275)"
         id="g272"><g
           id="g274"><g
             transform="translate(-82.754,-309.373)"
             id="g276"><text
               id="text278"
               style="font-variant:normal;font-weight:normal;font-size:10.47280025px;font-family:CharterBT;-inkscape-font-specification:CharterBT-Roman;writing-mode:lr-tb;fill:#ff0000;fill-opacity:1;fill-rule:nonzero;stroke:none"
               transform="matrix(1,0,0,-1,82.754,309.373)"><tspan
                 id="tspan280"
                 sodipodi:role="line"
                 y="0"
                 x="0 4.6708689 10.315708">cot</tspan></text>
<text
               id="text282"
               style="font-variant:normal;font-size:10.47280025px;font-family:MathDesign-CH-Regular-Italic-MathItalic;-inkscape-font-specification:MathDesign-CH-Regular-Italic-MathItalic-10;writing-mode:lr-tb;fill:#ff0000;fill-opacity:1;fill-rule:nonzero;stroke:none"
               transform="matrix(1,0,0,-1,98.029,309.373)"><tspan
                 id="tspan284"
                 y="0"
                 x="0">α</tspan></text>
<g
               transform="translate(82.754,309.373)"
               id="g286" /></g></g><g
           transform="translate(-55.294,-308.275)"
           id="g288" /></g></g><g
       id="g292" /><g
       transform="translate(186.207,230.468)"
       id="g294"><g
         id="g296"><g
           transform="translate(-213.667,-231.566)"
           id="g298"><text
             id="text300"
             style="font-variant:normal;font-size:10.47280025px;font-family:MathDesign-CH-Regular-Italic-MathItalic;-inkscape-font-specification:MathDesign-CH-Regular-Italic-MathItalic-10;writing-mode:lr-tb;fill:#008000;fill-opacity:1;fill-rule:nonzero;stroke:none"
             transform="matrix(1,0,0,-1,213.667,231.566)"><tspan
               id="tspan302"
               y="0"
               x="0">α</tspan></text>
<g
             transform="translate(213.667,231.566)"
             id="g304" /></g></g><g
         transform="translate(-186.207,-230.468)"
         id="g306" /></g><g
       id="g310" /><g
       transform="translate(64.602,247.476)"
       id="g312"><g
         id="g314"><g
           transform="translate(-92.062,-248.574)"
           id="g316"><text
             id="text318"
             style="font-variant:normal;font-size:10.47280025px;font-family:MathDesign-CH-Regular-Italic-MathItalic;-inkscape-font-specification:MathDesign-CH-Regular-Italic-MathItalic-10;writing-mode:lr-tb;fill:#008000;fill-opacity:1;fill-rule:nonzero;stroke:none"
             transform="matrix(1,0,0,-1,92.062,248.574)"><tspan
               id="tspan320"
               y="0"
               x="0">α</tspan></text>
<g
             transform="translate(92.062,248.574)"
             id="g322" /></g></g><g
         transform="translate(-64.602,-247.476)"
         id="g324" /></g></g></svg>