<?xml version="1.0" encoding="UTF-8" standalone="no"?>
<!-- Created with Inkscape (http://www.inkscape.org/) -->

<svg
   xmlns:dc="http://purl.org/dc/elements/1.1/"
   xmlns:cc="http://creativecommons.org/ns#"
   xmlns:rdf="http://www.w3.org/1999/02/22-rdf-syntax-ns#"
   xmlns:svg="http://www.w3.org/2000/svg"
   xmlns="http://www.w3.org/2000/svg"
   xmlns:sodipodi="http://sodipodi.sourceforge.net/DTD/sodipodi-0.dtd"
   xmlns:inkscape="http://www.inkscape.org/namespaces/inkscape"
   id="svg2"
   version="1.1"
   inkscape:version="0.91 r13725"
   xml:space="preserve"
   width="842.22876"
   height="607.96753"
   viewBox="0 0 842.22876 607.96753"
   sodipodi:docname="trig2.svg"><metadata
     id="metadata8"><rdf:RDF><cc:Work
         rdf:about=""><dc:format>image/svg+xml</dc:format><dc:type
           rdf:resource="http://purl.org/dc/dcmitype/StillImage" /><dc:title></dc:title></cc:Work></rdf:RDF></metadata><defs
     id="defs6"><clipPath
       clipPathUnits="userSpaceOnUse"
       id="clipPath160"><path
         d="m 0,0 194.27274,0 0,161.39484 L 0,161.39484 0,0 Z"
         id="path162"
         inkscape:connector-curvature="0" /></clipPath></defs><sodipodi:namedview
     pagecolor="#ffffff"
     bordercolor="#666666"
     borderopacity="1"
     objecttolerance="10"
     gridtolerance="10"
     guidetolerance="10"
     inkscape:pageopacity="0"
     inkscape:pageshadow="2"
     inkscape:window-width="1366"
     inkscape:window-height="722"
     id="namedview4"
     showgrid="false"
     inkscape:zoom="0.77484093"
     inkscape:cx="31.688528"
     inkscape:cy="426.61037"
     inkscape:window-x="0"
     inkscape:window-y="24"
     inkscape:window-maximized="1"
     inkscape:current-layer="g10" /><g
     id="g10"
     inkscape:groupmode="layer"
     inkscape:label="trig2"
     transform="matrix(1.25,0,0,-1.25,86.0675,606.595)"><g
       id="g16" /><g
       id="g18" /><g
       id="g20"
       transform="scale(3,3)"><g
         id="g22" /></g><g
       id="g24" /><g
       id="g26" /><g
       id="g28" /><g
       id="g30" /><g
       id="g44"
       transform="matrix(3,0,0,3,0.54855,-0.001)"><path
         d="m 48.5689,79.27989 0,2.83505 m 97.13786,-2.83505 0,2.83505"
         style="fill:none;stroke:#808080;stroke-width:0.19925;stroke-linecap:round;stroke-linejoin:miter;stroke-miterlimit:10;stroke-dasharray:none;stroke-opacity:1"
         id="path46"
         inkscape:connector-curvature="0" /></g><g
       id="g48"
       transform="matrix(3,0,0,3,0.54855,-0.001)"><path
         d="m 97.13783,78.57133 0,4.25214 m 97.13785,-4.25214 0,4.25214"
         style="fill:none;stroke:#808080;stroke-width:0.19925;stroke-linecap:round;stroke-linejoin:miter;stroke-miterlimit:10;stroke-dasharray:none;stroke-opacity:1"
         id="path50"
         inkscape:connector-curvature="0" /></g><g
       id="g54"
       transform="matrix(3,0,0,3,0.54855,-0.001)"><path
         d="M -1.41748,0 1.4175,0 m -2.83498,53.79828 2.83498,0 m -2.83498,53.79828 2.83498,0 m -2.83498,53.79828 2.83498,0"
         style="fill:none;stroke:#808080;stroke-width:0.19925;stroke-linecap:round;stroke-linejoin:miter;stroke-miterlimit:10;stroke-dasharray:none;stroke-opacity:1"
         id="path56"
         inkscape:connector-curvature="0" /></g><g
       id="g58"
       transform="matrix(3,0,0,3,0.54855,-0.001)"><path
         d="m -2.12602,26.89914 4.25204,0 m -4.25204,107.59656 4.25204,0"
         style="fill:none;stroke:#808080;stroke-width:0.19925;stroke-linecap:round;stroke-linejoin:miter;stroke-miterlimit:10;stroke-dasharray:none;stroke-opacity:1"
         id="path60"
         inkscape:connector-curvature="0" /></g><path
       inkscape:connector-curvature="0"
       id="path62"
       style="fill:none;stroke:#000000;stroke-width:1.19550002;stroke-linecap:round;stroke-linejoin:miter;stroke-miterlimit:10;stroke-dasharray:none;stroke-opacity:1"
       d="m 0.54855,242.09126 576.84063,0" /><g
       id="g66"
       transform="matrix(3,0,0,3,577.38918,242.09126)"><path
         d="M 1.99252,0 -1.19551,1.59401 0,0 -1.19551,-1.59401"
         style="fill:#000000;fill-opacity:1;fill-rule:nonzero;stroke:none"
         id="path68"
         inkscape:connector-curvature="0" /></g><path
       inkscape:connector-curvature="0"
       id="path70"
       style="fill:none;stroke:#000000;stroke-width:1.19550002;stroke-linecap:round;stroke-linejoin:miter;stroke-miterlimit:10;stroke-dasharray:none;stroke-opacity:1"
       d="m 0.54855,-0.001 0,478.20693" /><g
       id="g74"
       transform="matrix(0,3,-3,0,0.54855,478.20593)"><path
         d="M 1.99252,0 -1.19551,1.59401 0,0 -1.19551,-1.59401"
         style="fill:#000000;fill-opacity:1;fill-rule:nonzero;stroke:none"
         id="path76"
         inkscape:connector-curvature="0" /></g><g
       id="g80"
       transform="matrix(3,0,0,3,270.85155,194.306)"><g
         id="g82"><g
           id="g84"
           transform="translate(-113.386,-65.468)"><text
             transform="matrix(1,0,0,-1,114.582,70.327)"
             style="font-variant:normal;font-weight:normal;font-size:7.65140009px;font-family:CharterBT;-inkscape-font-specification:CharterBT-Roman;writing-mode:lr-tb;fill:#000000;fill-opacity:1;fill-rule:nonzero;stroke:none"
             id="text86"><tspan
               x="0"
               y="0"
               id="tspan88">1</tspan></text>
<g
             id="g90"
             transform="translate(114.582,68.494)"><path
               d="M 0,0 4.254,0"
               style="fill:none;stroke:#000000;stroke-width:0.62800002;stroke-linecap:butt;stroke-linejoin:miter;stroke-miterlimit:10;stroke-dasharray:none;stroke-opacity:1"
               id="path92"
               inkscape:connector-curvature="0" /></g><text
             transform="matrix(1,0,0,-1,114.582,61.991)"
             style="font-variant:normal;font-weight:normal;font-size:7.65140009px;font-family:CharterBT;-inkscape-font-specification:CharterBT-Roman;writing-mode:lr-tb;fill:#000000;fill-opacity:1;fill-rule:nonzero;stroke:none"
             id="text94"><tspan
               x="0"
               y="0"
               id="tspan96">2</tspan></text>
<text
             transform="matrix(1,0,0,-1,120.031,65.468)"
             style="font-variant:normal;font-size:10.47280025px;font-family:MathDesign-CH-Regular-Italic-MathItalic;-inkscape-font-specification:MathDesign-CH-Regular-Italic-MathItalic-10;writing-mode:lr-tb;fill:#000000;fill-opacity:1;fill-rule:nonzero;stroke:none"
             id="text98"><tspan
               x="0"
               y="0"
               id="tspan100">π</tspan></text>
<g
             id="g102"
             transform="translate(113.386,65.468)" /></g></g><g
         id="g104"
         transform="translate(-90.101,-64.769)" /></g><g
       id="g108"
       transform="matrix(3,0,0,3,572.22855,196.187)"><g
         id="g110"><g
           id="g112"
           transform="translate(-213.845,-66.095)"><text
             transform="matrix(1,0,0,-1,213.845,66.095)"
             style="font-variant:normal;font-size:10.47280025px;font-family:MathDesign-CH-Regular-Italic-MathItalic;-inkscape-font-specification:MathDesign-CH-Regular-Italic-MathItalic-10;writing-mode:lr-tb;fill:#000000;fill-opacity:1;fill-rule:nonzero;stroke:none"
             id="text114"><tspan
               x="0"
               y="0"
               id="tspan116">π</tspan></text>
<g
             id="g118"
             transform="translate(213.845,66.095)" /></g></g><g
         id="g120"
         transform="translate(-190.56,-65.396)" /></g><g
       id="g124"
       transform="matrix(3,0,0,3,-57.33345,70.133)"><g
         id="g126"><g
           id="g128"
           transform="translate(-3.991,-24.077)"><text
             transform="matrix(1,0,0,-1,3.991,24.077)"
             style="font-variant:normal;font-size:10.47280025px;font-family:MathDesign-CH-Regular-Symbol;-inkscape-font-specification:MathDesign-CH-Regular-Symbol-10;writing-mode:lr-tb;fill:#000000;fill-opacity:1;fill-rule:nonzero;stroke:none"
             id="text130"><tspan
               x="0"
               y="0"
               id="tspan132">−</tspan></text>
<text
             transform="matrix(1,0,0,-1,11.646,24.077)"
             style="font-variant:normal;font-weight:normal;font-size:10.47280025px;font-family:CharterBT;-inkscape-font-specification:CharterBT-Roman;writing-mode:lr-tb;fill:#000000;fill-opacity:1;fill-rule:nonzero;stroke:none"
             id="text134"><tspan
               x="0"
               y="0"
               id="tspan136">1</tspan></text>
<g
             id="g138"
             transform="translate(3.991,24.077)" /></g></g><g
         id="g140"
         transform="translate(19.294,-23.378)" /></g><g
       id="g144"
       transform="matrix(3,0,0,3,-34.36845,392.807)"><g
         id="g146"><g
           id="g148"
           transform="translate(-11.646,-131.635)"><text
             transform="matrix(1,0,0,-1,11.646,131.635)"
             style="font-variant:normal;font-weight:normal;font-size:10.47280025px;font-family:CharterBT;-inkscape-font-specification:CharterBT-Roman;writing-mode:lr-tb;fill:#000000;fill-opacity:1;fill-rule:nonzero;stroke:none"
             id="text150"><tspan
               x="0"
               y="0"
               id="tspan152">1</tspan></text>
<g
             id="g154"
             transform="translate(11.646,131.635)" /></g></g><g
         id="g156"
         transform="translate(11.639,-130.936)" /></g><g
       id="g164"
       transform="matrix(3,0,0,3,0.54855,-0.001)"><path
         d="m 53.85878,80.9567 c 0,29.74575 -24.11304,53.85879 -53.85878,53.85879 -29.74574,0 -53.85878,-24.11304 -53.85878,-53.85879 0,-29.74576 24.11304,-53.85878 53.85878,-53.85878 29.74574,0 53.85878,24.11302 53.85878,53.85878 z"
         style="fill:none;stroke:#cc6600;stroke-width:1.19553006;stroke-linecap:round;stroke-linejoin:miter;stroke-miterlimit:10;stroke-dasharray:none;stroke-opacity:1"
         id="path166"
         inkscape:connector-curvature="0" /></g><g
       id="g168"
       transform="matrix(3,0,0,3,0.54855,-0.001)"><path
         d="m 0,80.28065 20.39897,0 c 0,4.48163 -2.04754,8.78199 -5.69021,11.95095"
         style="fill:#ccffcc;fill-opacity:1;fill-rule:nonzero;stroke:#008000;stroke-width:0.3985;stroke-linecap:round;stroke-linejoin:miter;stroke-miterlimit:10;stroke-dasharray:none;stroke-opacity:1"
         id="path170"
         inkscape:connector-curvature="0" /></g><g
       id="g172"
       transform="matrix(3,0,0,3,0.54855,-0.001)"><path
         d="m 41.76935,80.28065 0,33.80239"
         style="fill:none;stroke:#ff0000;stroke-width:1.19553006;stroke-linecap:round;stroke-linejoin:miter;stroke-miterlimit:10;stroke-dasharray:none;stroke-opacity:1"
         id="path174"
         inkscape:connector-curvature="0" /><g
         id="g176"><g
           id="g178"
           transform="translate(40.876,97.181)"><g
             id="g180" /><g
             id="g182"
             transform="translate(-40.876,-97.181)" /></g></g></g><g
       id="g184"
       transform="matrix(3,0,0,3,0.54855,-0.001)"><g
         id="g186" /><g
         id="g188"
         transform="translate(19.883,83.656)"><g
           id="g190"><g
             id="g192"
             transform="translate(-43.168,-84.355)"><text
               transform="matrix(1,0,0,-1,43.168,84.355)"
               style="font-variant:normal;font-size:10.47280025px;font-family:MathDesign-CH-Regular-Italic-MathItalic;-inkscape-font-specification:MathDesign-CH-Regular-Italic-MathItalic-10;writing-mode:lr-tb;fill:#008000;fill-opacity:1;fill-rule:nonzero;stroke:none"
               id="text194"><tspan
                 x="0"
                 y="0"
                 id="tspan196">α</tspan></text>
<g
               id="g198"
               transform="translate(43.168,84.355)" /></g></g><g
           id="g200"
           transform="translate(-19.883,-83.656)" /></g></g><g
       id="g202"
       transform="matrix(3,0,0,3,0.54855,-0.001)"><path
         d="m 0.58281,80.28065 41.18654,0"
         style="fill:none;stroke:#0000ff;stroke-width:1.19553006;stroke-linecap:round;stroke-linejoin:miter;stroke-miterlimit:10;stroke-dasharray:none;stroke-opacity:1"
         id="path204"
         inkscape:connector-curvature="0" /><g
         id="g206"><g
           id="g208"><path
             d="m 6.27263,65.54077 29.80687,0 0,12.14957 -29.80687,0 0,-12.14957 z"
             style="fill:#ffffff;fill-opacity:1;fill-rule:nonzero;stroke:none"
             id="path210"
             inkscape:connector-curvature="0" /></g><g
           id="g212"
           transform="translate(9.763,69.104)"><g
             id="g214"><g
               id="g216"
               transform="translate(-33.048,-69.803)"><text
                 transform="matrix(1,0,0,-1,33.048,69.803)"
                 style="font-variant:normal;font-weight:normal;font-size:10.47280025px;font-family:CharterBT;-inkscape-font-specification:CharterBT-Roman;writing-mode:lr-tb;fill:#0000ff;fill-opacity:1;fill-rule:nonzero;stroke:none"
                 id="text218"><tspan
                   x="0 4.6708689 10.315708"
                   y="0"
                   sodipodi:role="line"
                   id="tspan220">cos</tspan></text>
<text
                 transform="matrix(1,0,0,-1,49.014,69.803)"
                 style="font-variant:normal;font-size:10.47280025px;font-family:MathDesign-CH-Regular-Italic-MathItalic;-inkscape-font-specification:MathDesign-CH-Regular-Italic-MathItalic-10;writing-mode:lr-tb;fill:#0000ff;fill-opacity:1;fill-rule:nonzero;stroke:none"
                 id="text222"><tspan
                   x="0"
                   y="0"
                   id="tspan224">α</tspan></text>
<g
                 id="g226"
                 transform="translate(33.048,69.803)" /></g></g><g
             id="g228"
             transform="translate(-9.763,-69.104)" /></g></g></g><g
       id="g230"
       transform="matrix(3.001257,0,0,2.9306217,2.0670206,7.1416203)"><path
         d="m 53.4259,80.28065 0,35.49251"
         style="fill:none;stroke:#0000ff;stroke-width:1.19553006;stroke-linecap:round;stroke-linejoin:miter;stroke-miterlimit:10;stroke-dasharray:none;stroke-opacity:1"
         id="path232"
         inkscape:connector-curvature="0" /><g
         id="g234"><g
           id="g236"
           transform="translate(54.525,91.831)"><g
             id="g238"><g
               id="g240"
               transform="translate(-77.81,-92.53)"><text
                 transform="matrix(1,0,0,-1,77.81,92.53)"
                 style="font-variant:normal;font-weight:normal;font-size:10.47280025px;font-family:CharterBT;-inkscape-font-specification:CharterBT-Roman;writing-mode:lr-tb;fill:#0000ff;fill-opacity:1;fill-rule:nonzero;stroke:none"
                 id="text242"><tspan
                   x="0 4.6708689 10.315708"
                   y="0"
                   sodipodi:role="line"
                   id="tspan244">cos</tspan></text>
<text
                 transform="matrix(1,0,0,-1,93.775,92.53)"
                 style="font-variant:normal;font-size:10.47280025px;font-family:MathDesign-CH-Regular-Italic-MathItalic;-inkscape-font-specification:MathDesign-CH-Regular-Italic-MathItalic-10;writing-mode:lr-tb;fill:#0000ff;fill-opacity:1;fill-rule:nonzero;stroke:none"
                 id="text246"><tspan
                   x="0"
                   y="0"
                   id="tspan248">α</tspan></text>
<g
                 id="g250"
                 transform="translate(77.81,92.53)" /></g></g><g
             id="g252"
             transform="translate(-54.525,-91.831)" /></g></g></g><g
       id="g254"
       transform="matrix(3,0,0,3,0.54855,-0.001)"><path
         d="m 0.58281,80.28065 41.18654,33.80239"
         style="fill:none;stroke:#cc6600;stroke-width:1.19553006;stroke-linecap:round;stroke-linejoin:miter;stroke-miterlimit:10;stroke-dasharray:none;stroke-opacity:1"
         id="path256"
         inkscape:connector-curvature="0" /><g
         id="g258"><g
           id="g260" /><g
           id="g262"
           transform="translate(12.261,100.346)"><g
             id="g264"><g
               id="g266"
               transform="translate(-35.546,-101.045)"><text
                 transform="matrix(1,0,0,-1,35.546,101.045)"
                 style="font-variant:normal;font-weight:normal;font-size:10.47280025px;font-family:CharterBT;-inkscape-font-specification:CharterBT-Roman;writing-mode:lr-tb;fill:#cc6600;fill-opacity:1;fill-rule:nonzero;stroke:none"
                 id="text268"><tspan
                   x="0"
                   y="0"
                   id="tspan270">1</tspan></text>
<g
                 id="g272"
                 transform="translate(35.546,101.045)" /></g></g><g
             id="g274"
             transform="translate(-12.261,-100.346)" /></g></g></g><g
       id="g276"
       transform="matrix(3,0,0,3,0.54855,-0.001)"><path
         d="m 0,134.4957 c 0,0 2.86455,-0.0514 3.96474,-0.11298 1.1002,-0.0616 2.86456,-0.20936 3.96475,-0.3314 1.10021,-0.12204 2.86456,-0.36542 3.96475,-0.54821 1.10021,-0.18278 2.86458,-0.5265 3.96477,-0.76931 1.1002,-0.2428 2.86456,-0.67957 3.96475,-0.98075 1.10021,-0.30119 2.86456,-0.83113 3.96475,-1.19002 1.10021,-0.35888 2.86457,-0.98144 3.96476,-1.3966 1.1002,-0.41516 2.86456,-1.12636 3.96475,-1.59564 1.1002,-0.46929 2.86458,-1.26496 3.96477,-1.78666 1.1002,-0.52168 2.86456,-1.40101 3.96475,-1.97331 1.1002,-0.57229 2.86456,-1.53149 3.96475,-2.1514 1.10021,-0.61992 2.86456,-1.65141 3.96475,-2.31656 1.10021,-0.66514 2.86458,-1.76919 3.96477,-2.4774 1.1002,-0.70822 2.86456,-1.87913 3.96475,-2.62698 1.10021,-0.74785 2.86456,-1.97879 3.96475,-2.76308 1.10021,-0.78428 2.86458,-2.07156 3.96477,-2.8895 1.10021,-0.81794 2.86455,-2.15777 3.96474,-3.00572 1.1002,-0.84796 2.86456,-2.23139 3.96475,-3.10577 1.1002,-0.87437 2.86456,-2.29849 3.96475,-3.19615 1.10021,-0.89766 2.86455,-2.35656 3.96474,-3.27362 1.1002,-0.91709 2.86456,-2.40346 3.96475,-3.33604 1.10021,-0.9326 2.86456,-2.44143 3.96475,-3.38552 1.10021,-0.94409 2.86455,-2.46695 3.96474,-3.41888 1.1002,-0.95194 2.86456,-2.48622 3.96475,-3.44204 1.10021,-0.95581 2.86457,-2.49126 3.96475,-3.44683 1.10021,-0.95559 2.86455,-2.48839 3.96474,-3.4404 1.10021,-0.95201 2.86456,-2.47672 3.96476,-3.42104 1.1002,-0.94432 2.86456,-2.45253 3.96475,-3.38498 1.1002,-0.93245 2.86455,-2.41867 3.96473,-3.33551 1.10021,-0.91685 2.86457,-2.37495 3.96476,-3.27255 1.1002,-0.89758 2.86454,-2.32201 3.96475,-3.19669 1.1002,-0.87468 2.86455,-2.25935 3.96475,-3.10739 1.1002,-0.84802 2.86453,-2.18675 3.96474,-3.00462 1.1002,-0.81787 2.86454,-2.10568 3.96475,-2.89005 1.1002,-0.78436 2.86455,-2.01529 3.96475,-2.76307 1.10021,-0.74779 2.86453,-1.91817 3.96474,-2.62645 1.1002,-0.7083 2.86455,-1.8131 3.96475,-2.47847 1.1002,-0.66538 2.86455,-1.69719 3.96475,-2.31711 1.10021,-0.6199 2.86453,-1.57863 3.96474,-2.15085 1.10019,-0.57222 2.86454,-1.45157 3.96475,-1.97333 1.10019,-0.52174 2.86455,-1.31781 3.96475,-1.78717 1.10019,-0.46935 2.86454,-1.18042 3.96474,-1.59565 1.10019,-0.41524 2.86455,-1.03826 3.96475,-1.39714 1.10019,-0.35889 2.86455,-0.88822 3.96475,-1.18949 1.1002,-0.30125 2.86454,-0.73901 3.96474,-0.98181 1.10019,-0.24281 2.86455,-0.58543 3.96476,-0.76823 1.10018,-0.1828 2.86454,-0.42717 3.96475,-0.54929 1.10019,-0.12212 2.86453,-0.26929 3.96473,-0.33086 1.10019,-0.06157 3.96476,-0.11299 3.96476,-0.11299"
         style="fill:none;stroke:#000000;stroke-width:2.49068999;stroke-linecap:round;stroke-linejoin:miter;stroke-miterlimit:10;stroke-dasharray:2.98883, 2.98883;stroke-dashoffset:0;stroke-opacity:1"
         id="path278"
         inkscape:connector-curvature="0" /></g><g
       id="g280"
       transform="matrix(3,0,0,3,0.54855,-0.001)"><g
         id="g282"><path
           d="m 46.50543,67.4899 13.84094,0 0,12.06055 -13.84094,0 0,-12.06055 z"
           style="fill:#ffffff;fill-opacity:1;fill-rule:nonzero;stroke:none"
           id="path284"
           inkscape:connector-curvature="0" /></g><g
         id="g286"
         transform="translate(49.995,70.98)"><g
           id="g288"><g
             id="g290"
             transform="translate(-73.28,-71.679)"><text
               transform="matrix(1,0,0,-1,73.28,71.679)"
               style="font-variant:normal;font-size:10.47280025px;font-family:MathDesign-CH-Regular-Italic-MathItalic;-inkscape-font-specification:MathDesign-CH-Regular-Italic-MathItalic-10;writing-mode:lr-tb;fill:#008000;fill-opacity:1;fill-rule:nonzero;stroke:none"
               id="text292"><tspan
                 x="0"
                 y="0"
                 id="tspan294">α</tspan></text>
<g
               id="g296"
               transform="translate(73.28,71.679)" /></g></g><g
           id="g298"
           transform="translate(-49.995,-70.98)" /></g></g><g
       id="g304" /><g
       id="g306" /></g></svg>