<?xml version="1.0" encoding="UTF-8" standalone="no"?>
<!-- Created with Inkscape (http://www.inkscape.org/) -->

<svg
   xmlns:dc="http://purl.org/dc/elements/1.1/"
   xmlns:cc="http://creativecommons.org/ns#"
   xmlns:rdf="http://www.w3.org/1999/02/22-rdf-syntax-ns#"
   xmlns:svg="http://www.w3.org/2000/svg"
   xmlns="http://www.w3.org/2000/svg"
   xmlns:sodipodi="http://sodipodi.sourceforge.net/DTD/sodipodi-0.dtd"
   xmlns:inkscape="http://www.inkscape.org/namespaces/inkscape"
   id="svg2"
   version="1.1"
   inkscape:version="0.91 r13725"
   xml:space="preserve"
   width="731.25372"
   height="607.97498"
   viewBox="0 0 731.25372 607.97498"
   sodipodi:docname="trig3a.svg"><metadata
     id="metadata8"><rdf:RDF><cc:Work
         rdf:about=""><dc:format>image/svg+xml</dc:format><dc:type
           rdf:resource="http://purl.org/dc/dcmitype/StillImage" /><dc:title></dc:title></cc:Work></rdf:RDF></metadata><defs
     id="defs6"><clipPath
       clipPathUnits="userSpaceOnUse"
       id="clipPath176"><path
         d="m 0,946.93129 194.27156,0 0,161.39681 -194.27156,0 0,-161.39681 z"
         id="path178"
         inkscape:connector-curvature="0" /></clipPath></defs><sodipodi:namedview
     pagecolor="#ffffff"
     bordercolor="#666666"
     borderopacity="1"
     objecttolerance="10"
     gridtolerance="10"
     guidetolerance="10"
     inkscape:pageopacity="0"
     inkscape:pageshadow="2"
     inkscape:window-width="1366"
     inkscape:window-height="722"
     id="namedview4"
     showgrid="false"
     inkscape:zoom="0.77483144"
     inkscape:cx="365.62686"
     inkscape:cy="303.98749"
     inkscape:window-x="0"
     inkscape:window-y="24"
     inkscape:window-maximized="1"
     inkscape:current-layer="g10" /><g
     id="g10"
     inkscape:groupmode="layer"
     inkscape:label="trig3a"
     transform="matrix(1.25,0,0,-1.25,1.3725,606.6025)"><g
       id="g22"
       transform="scale(3,3)" /><g
       id="g42"
       transform="matrix(3,0,0,3,-0.001,-2840.758)"><g
         id="g44"><path
           inkscape:connector-curvature="0"
           id="path46"
           style="fill:none;stroke:#808080;stroke-width:0.19925;stroke-linecap:round;stroke-linejoin:miter;stroke-miterlimit:10;stroke-dasharray:none;stroke-opacity:1"
           d="m 61.94221,1026.2123 0,2.8348 m 70.38846,-2.8348 0,2.8348" /></g><g
         id="g48"><path
           inkscape:connector-curvature="0"
           id="path50"
           style="fill:none;stroke:#808080;stroke-width:0.19925;stroke-linecap:round;stroke-linejoin:miter;stroke-miterlimit:10;stroke-dasharray:none;stroke-opacity:1"
           d="m 26.74799,1025.5038 0,4.2518 m 140.77693,-4.2518 0,4.2518" /></g></g><g
       id="g52"
       transform="matrix(3,0,0,3,-0.001,-2840.758)"><g
         id="g54"><path
           inkscape:connector-curvature="0"
           id="path56"
           style="fill:none;stroke:#808080;stroke-width:0.19925;stroke-linecap:round;stroke-linejoin:miter;stroke-miterlimit:10;stroke-dasharray:none;stroke-opacity:1"
           d="m 95.71901,958.45963 2.8349,0 m -2.8349,46.11337 2.8349,0 m -2.8349,46.1134 2.8349,0 m -2.8349,46.1134 2.8349,0" /></g><g
         id="g58"><path
           inkscape:connector-curvature="0"
           id="path60"
           style="fill:none;stroke:#808080;stroke-width:0.19925;stroke-linecap:round;stroke-linejoin:miter;stroke-miterlimit:10;stroke-dasharray:none;stroke-opacity:1"
           d="m 95.01048,981.51633 4.25194,0 m -4.25194,92.22677 4.25194,0" /></g></g><path
       inkscape:connector-curvature="0"
       id="path62"
       style="fill:none;stroke:#000000;stroke-width:1.19550002;stroke-linecap:round;stroke-linejoin:miter;stroke-miterlimit:10;stroke-dasharray:none;stroke-opacity:1"
       d="m -0.001,242.1311 576.83712,0" /><g
       transform="matrix(3,0,0,3,576.83612,242.1311)"
       id="g64"><g
         id="g66"><path
           inkscape:connector-curvature="0"
           id="path68"
           style="fill:#000000;fill-opacity:1;fill-rule:nonzero;stroke:none"
           d="M 1.99252,0 -1.19551,1.59401 0,0 -1.19551,-1.59401" /></g></g><path
       inkscape:connector-curvature="0"
       id="path70"
       style="fill:none;stroke:#000000;stroke-width:1.19550002;stroke-linecap:round;stroke-linejoin:miter;stroke-miterlimit:10;stroke-dasharray:none;stroke-opacity:1"
       d="m 291.40838,0.03587 0,478.21293" /><g
       transform="matrix(0,3,-3,0,291.40838,478.2488)"
       id="g72"><g
         id="g74"><path
           inkscape:connector-curvature="0"
           id="path76"
           style="fill:#000000;fill-opacity:1;fill-rule:nonzero;stroke:none"
           d="M 1.99252,0 -1.19551,1.59401 0,0 -1.19551,-1.59401" /></g></g><g
       id="g78"
       transform="matrix(3,0,0,3,32.375336,-2834.5631)"><g
         transform="translate(15.885,1011.689)"
         id="g80"><g
           id="g82"><g
             transform="translate(-16.584,-65.469)"
             id="g84"><text
               id="text86"
               style="font-variant:normal;font-size:10.47280025px;font-family:MathDesign-CH-Regular-Symbol;-inkscape-font-specification:MathDesign-CH-Regular-Symbol-10;writing-mode:lr-tb;fill:#000000;fill-opacity:1;fill-rule:nonzero;stroke:none"
               transform="matrix(1,0,0,-1,16.584,65.469)"><tspan
                 id="tspan88"
                 y="0"
                 x="0">−</tspan></text>
<text
               id="text90"
               style="font-variant:normal;font-weight:normal;font-size:7.65140009px;font-family:CharterBT;-inkscape-font-specification:CharterBT-Roman;writing-mode:lr-tb;fill:#000000;fill-opacity:1;fill-rule:nonzero;stroke:none"
               transform="matrix(1,0,0,-1,25.435,70.328)"><tspan
                 id="tspan92"
                 y="0"
                 x="0">1</tspan></text>
<g
               transform="translate(25.435,68.496)"
               id="g94"><path
                 inkscape:connector-curvature="0"
                 id="path96"
                 style="fill:none;stroke:#000000;stroke-width:0.62800002;stroke-linecap:butt;stroke-linejoin:miter;stroke-miterlimit:10;stroke-dasharray:none;stroke-opacity:1"
                 d="M 0,0 4.254,0" /></g><text
               id="text98"
               style="font-variant:normal;font-weight:normal;font-size:7.65140009px;font-family:CharterBT;-inkscape-font-specification:CharterBT-Roman;writing-mode:lr-tb;fill:#000000;fill-opacity:1;fill-rule:nonzero;stroke:none"
               transform="matrix(1,0,0,-1,25.435,61.992)"><tspan
                 id="tspan100"
                 y="0"
                 x="0">2</tspan></text>
<text
               id="text102"
               style="font-variant:normal;font-size:10.47280025px;font-family:MathDesign-CH-Regular-Italic-MathItalic;-inkscape-font-specification:MathDesign-CH-Regular-Italic-MathItalic-10;writing-mode:lr-tb;fill:#000000;fill-opacity:1;fill-rule:nonzero;stroke:none"
               transform="matrix(1,0,0,-1,30.885,65.469)"><tspan
                 id="tspan104"
                 y="0"
                 x="0">π</tspan></text>
<g
               transform="translate(16.584,65.469)"
               id="g106" /></g></g><g
           transform="translate(-15.885,-1011.689)"
           id="g108" /></g></g><g
       id="g110"
       transform="matrix(3,0,0,3,-0.001,-2840.758)"><g
         transform="translate(169.78034,1013.0656)"
         id="g112"><g
           id="g114"><g
             transform="translate(-161.187,-65.469)"
             id="g116"><text
               id="text118"
               style="font-variant:normal;font-weight:normal;font-size:7.65140009px;font-family:CharterBT;-inkscape-font-specification:CharterBT-Roman;writing-mode:lr-tb;fill:#000000;fill-opacity:1;fill-rule:nonzero;stroke:none"
               transform="matrix(1,0,0,-1,162.382,70.328)"><tspan
                 id="tspan120"
                 y="0"
                 x="0">1</tspan></text>
<g
               transform="translate(162.382,68.496)"
               id="g122"><path
                 inkscape:connector-curvature="0"
                 id="path124"
                 style="fill:none;stroke:#000000;stroke-width:0.62800002;stroke-linecap:butt;stroke-linejoin:miter;stroke-miterlimit:10;stroke-dasharray:none;stroke-opacity:1"
                 d="M 0,0 4.254,0" /></g><text
               id="text126"
               style="font-variant:normal;font-weight:normal;font-size:7.65140009px;font-family:CharterBT;-inkscape-font-specification:CharterBT-Roman;writing-mode:lr-tb;fill:#000000;fill-opacity:1;fill-rule:nonzero;stroke:none"
               transform="matrix(1,0,0,-1,162.382,61.992)"><tspan
                 id="tspan128"
                 y="0"
                 x="0">2</tspan></text>
<text
               id="text130"
               style="font-variant:normal;font-size:10.47280025px;font-family:MathDesign-CH-Regular-Italic-MathItalic;-inkscape-font-specification:MathDesign-CH-Regular-Italic-MathItalic-10;writing-mode:lr-tb;fill:#000000;fill-opacity:1;fill-rule:nonzero;stroke:none"
               transform="matrix(1,0,0,-1,167.832,65.469)"><tspan
                 id="tspan132"
                 y="0"
                 x="0">π</tspan></text>
<g
               transform="translate(161.187,65.469)"
               id="g134" /></g></g><g
           transform="translate(-160.488,-1011.689)"
           id="g136" /></g></g><g
       id="g138"
       transform="matrix(3,0,0,3,-0.001,-2840.758)"><g
         transform="translate(77.841,977.982)"
         id="g140"><g
           id="g142"><g
             transform="translate(-78.54,-31.762)"
             id="g144"><text
               id="text146"
               style="font-variant:normal;font-size:10.47280025px;font-family:MathDesign-CH-Regular-Symbol;-inkscape-font-specification:MathDesign-CH-Regular-Symbol-10;writing-mode:lr-tb;fill:#000000;fill-opacity:1;fill-rule:nonzero;stroke:none"
               transform="matrix(1,0,0,-1,78.54,31.762)"><tspan
                 id="tspan148"
                 y="0"
                 x="0">−</tspan></text>
<text
               id="text150"
               style="font-variant:normal;font-weight:normal;font-size:10.47280025px;font-family:CharterBT;-inkscape-font-specification:CharterBT-Roman;writing-mode:lr-tb;fill:#000000;fill-opacity:1;fill-rule:nonzero;stroke:none"
               transform="matrix(1,0,0,-1,86.196,31.762)"><tspan
                 id="tspan152"
                 y="0"
                 x="0">2</tspan></text>
<g
               transform="translate(78.54,31.762)"
               id="g154" /></g></g><g
           transform="translate(-77.841,-977.982)"
           id="g156" /></g></g><g
       id="g158"
       transform="matrix(3,0,0,3,-0.001,-2840.758)"><g
         transform="translate(85.497,1070.135)"
         id="g160"><g
           id="g162"><g
             transform="translate(-86.196,-123.915)"
             id="g164"><text
               id="text166"
               style="font-variant:normal;font-weight:normal;font-size:10.47280025px;font-family:CharterBT;-inkscape-font-specification:CharterBT-Roman;writing-mode:lr-tb;fill:#000000;fill-opacity:1;fill-rule:nonzero;stroke:none"
               transform="matrix(1,0,0,-1,86.196,123.915)"><tspan
                 id="tspan168"
                 y="0"
                 x="0">2</tspan></text>
<g
               transform="translate(86.196,123.915)"
               id="g170" /></g></g><g
           transform="translate(-85.497,-1070.135)"
           id="g172" /></g></g><path
       inkscape:connector-curvature="0"
       id="path182"
       style="fill:none;stroke:#000000;stroke-width:2.39103007;stroke-linecap:round;stroke-linejoin:miter;stroke-miterlimit:10;stroke-dasharray:none;stroke-opacity:1"
       d="m 118.94069,8.51819 c 3.30057,23.2113 8.59359,45.2892 11.89416,58.56411 3.30063,13.275 8.59365,28.36311 11.89422,37.11261 3.30063,8.74947 8.59365,19.65183 11.89416,25.94769 3.30057,6.29586 8.59365,14.60874 11.89416,19.42854 3.30057,4.81986 8.59362,11.44476 11.89419,15.30936 3.3006,3.8646 8.59362,9.3294 11.89422,12.5439 3.3006,3.2148 8.59359,7.8693 11.89413,10.626 3.30063,2.757 8.59365,6.8181 11.89422,9.2439 3.30063,2.4261 8.59365,6.0567 11.89416,8.241 3.30057,2.1843 8.59365,5.4945 11.89419,7.5015 3.30054,2.0067 8.59359,5.0841 11.89416,6.9627 3.3006,1.8786 8.59362,4.788 11.89419,6.5772 3.30063,1.7895 8.59362,4.5861 11.89416,6.3195 3.30063,1.7334 8.59365,4.4673 11.89422,6.1731 3.30063,1.7058 8.59365,4.4157 11.89416,6.1215 3.30057,1.7058 8.59365,4.4397 11.89419,6.1731 3.30054,1.7334 8.59359,4.5306 11.89416,6.3201 3.3006,1.7895 8.59362,4.6983 11.89419,6.5766 3.30063,1.8783 8.59362,4.9539 11.89419,6.9606 3.3006,2.0067 8.59362,5.3178 11.89419,7.5024 3.30063,2.1843 8.59365,5.8161 11.89419,8.2422 3.30054,2.4261 8.59359,6.4863 11.89416,9.243 3.3006,2.757 8.59362,7.4121 11.89419,10.6269 3.30063,3.2145 8.59365,8.6793 11.89416,12.5433 3.30057,3.8637 8.59359,10.4847 11.89419,15.3036 3.3006,4.8192 8.59362,13.1331 11.89419,19.4286 3.30063,6.2955 8.59365,17.1978 11.89416,25.9449 3.30057,8.7471 8.59362,23.8233 11.89419,37.098 2.68094,22.6065 5.28548,44.5808 7.81514,65.93446"
       sodipodi:nodetypes="cssssscccscscssssssscsccccsscc" /><g
       transform="matrix(3,0,0,3,1.196,1.196)"
       id="g186" /><path
       inkscape:connector-curvature="0"
       id="path194"
       style="fill:none;stroke:#cc6600;stroke-width:1.19553006;stroke-linecap:round;stroke-linejoin:miter;stroke-miterlimit:10;stroke-dasharray:none;stroke-opacity:1"
       d="m 358.01949,242.3657 c 0,38.04328 -30.8393,68.88258 -68.88257,68.88258 -38.04326,0 -68.88256,-30.8393 -68.88256,-68.88258 0,-38.04325 30.8393,-68.88256 68.88256,-68.88256 38.04327,0 68.88257,30.83931 68.88257,68.88256 z" /><path
       inkscape:connector-curvature="0"
       id="path198"
       style="fill:#ccffcc;fill-opacity:0.7;fill-rule:nonzero;stroke:#008000;stroke-width:0.3985;stroke-linecap:round;stroke-linejoin:miter;stroke-miterlimit:10;stroke-dasharray:none;stroke-opacity:0.7"
       d="m 291.68803,242.3657 31.46581,0 c 0,8.17178 -1.07341,16.31927 -3.18735,24.21128" /><path
       inkscape:connector-curvature="0"
       id="path202"
       style="fill:none;stroke:#ff0000;stroke-width:1.19553006;stroke-linecap:round;stroke-linejoin:miter;stroke-miterlimit:10;stroke-dasharray:none;stroke-opacity:1"
       d="m 358.44508,242.3657 0,58.67684" /><g
       id="g204"><g
         transform="translate(359.54,268.731)"
         id="g206"><g
           id="g208"><g
             transform="translate(-360.638,-269.829)"
             id="g210"><text
               id="text212"
               style="font-variant:normal;font-weight:normal;font-size:10.47280025px;font-family:CharterBT;-inkscape-font-specification:CharterBT-Roman;writing-mode:lr-tb;fill:#ff0000;fill-opacity:1;fill-rule:nonzero;stroke:none"
               transform="matrix(1,0,0,-1,360.638,269.829)"><tspan
                 id="tspan214"
                 sodipodi:role="line"
                 y="0"
                 x="0 3.4979153 8.8076248">tan</tspan></text>
<text
               id="text216"
               style="font-variant:normal;font-size:10.47280025px;font-family:MathDesign-CH-Regular-Italic-MathItalic;-inkscape-font-specification:MathDesign-CH-Regular-Italic-MathItalic-10;writing-mode:lr-tb;fill:#ff0000;fill-opacity:1;fill-rule:nonzero;stroke:none"
               transform="matrix(1,0,0,-1,376.855,269.829)"><tspan
                 id="tspan218"
                 y="0"
                 x="0">α</tspan></text>
<g
               transform="translate(360.638,269.829)"
               id="g220" /></g></g><g
           transform="translate(-359.54,-268.731)"
           id="g222" /></g></g><g
       id="g226" /><g
       transform="translate(328.223,247.476)"
       id="g228"><g
         id="g230"><g
           transform="translate(-329.321,-248.574)"
           id="g232"><text
             id="text234"
             style="font-variant:normal;font-size:10.47280025px;font-family:MathDesign-CH-Regular-Italic-MathItalic;-inkscape-font-specification:MathDesign-CH-Regular-Italic-MathItalic-10;writing-mode:lr-tb;fill:#008000;fill-opacity:1;fill-rule:nonzero;stroke:none"
             transform="matrix(1,0,0,-1,329.321,248.574)"><tspan
               id="tspan236"
               y="0"
               x="0">α</tspan></text>
<g
             transform="translate(329.321,248.574)"
             id="g238" /></g></g><g
         transform="translate(-328.223,-247.476)"
         id="g240" /></g><path
       inkscape:connector-curvature="0"
       id="path244"
       style="fill:none;stroke:#0000ff;stroke-width:1.19553006;stroke-linecap:round;stroke-linejoin:miter;stroke-miterlimit:10;stroke-dasharray:none;stroke-opacity:1"
       d="m 291.68803,242.3657 66.75705,0" /><g
       id="g246"><g
         id="g248"><path
           inkscape:connector-curvature="0"
           id="path250"
           style="fill:#ffffff;fill-opacity:1;fill-rule:nonzero;stroke:none"
           d="m 318.66449,225.53123 12.80414,0 0,14.24416 -12.80414,0 0,-14.24416 z" /></g><g
         transform="translate(322.151,229.092)"
         id="g252"><g
           id="g254"><g
             transform="translate(-323.249,-230.19)"
             id="g256"><text
               id="text258"
               style="font-variant:normal;font-weight:normal;font-size:10.47280025px;font-family:CharterBT;-inkscape-font-specification:CharterBT-Roman;writing-mode:lr-tb;fill:#0000ff;fill-opacity:1;fill-rule:nonzero;stroke:none"
               transform="matrix(1,0,0,-1,323.249,230.19)"><tspan
                 id="tspan260"
                 y="0"
                 x="0">1</tspan></text>
<g
               transform="translate(323.249,230.19)"
               id="g262" /></g></g><g
           transform="translate(-322.151,-229.092)"
           id="g264" /></g></g><path
       inkscape:connector-curvature="0"
       id="path268"
       style="fill:none;stroke:#008000;stroke-width:1.19553006;stroke-linecap:round;stroke-linejoin:miter;stroke-miterlimit:10;stroke-dasharray:none;stroke-opacity:1"
       d="m 291.68803,242.3657 66.33274,58.67684" /><g
       id="g270"><g
         id="g272" /><g
         transform="translate(299.435,274.866)"
         id="g274"><g
           id="g276"><g
             transform="translate(-300.533,-275.964)"
             id="g278"><text
               id="text280"
               style="font-variant:normal;font-weight:normal;font-size:10.47280025px;font-family:CharterBT;-inkscape-font-specification:CharterBT-Roman;writing-mode:lr-tb;fill:#008000;fill-opacity:1;fill-rule:nonzero;stroke:none"
               transform="matrix(1,0,0,-1,300.533,275.964)"><tspan
                 id="tspan282"
                 sodipodi:role="line"
                 y="0"
                 x="0 4.1891198 9.3312645">sec</tspan></text>
<text
               id="text284"
               style="font-variant:normal;font-size:10.47280025px;font-family:MathDesign-CH-Regular-Italic-MathItalic;-inkscape-font-specification:MathDesign-CH-Regular-Italic-MathItalic-10;writing-mode:lr-tb;fill:#008000;fill-opacity:1;fill-rule:nonzero;stroke:none"
               transform="matrix(1,0,0,-1,315.996,275.964)"><tspan
                 id="tspan286"
                 y="0"
                 x="0">α</tspan></text>
<g
               transform="translate(300.533,275.964)"
               id="g288" /></g></g><g
           transform="translate(-299.435,-274.866)"
           id="g290" /></g></g><path
       inkscape:connector-curvature="0"
       id="path294"
       style="fill:none;stroke:#ff0000;stroke-width:1.19553006;stroke-linecap:round;stroke-linejoin:miter;stroke-miterlimit:10;stroke-dasharray:none;stroke-opacity:1"
       d="m 385.9986,242.3657 0,58.67684" /><g
       id="g296"><g
         transform="translate(387.093,268.731)"
         id="g298"><g
           id="g300"><g
             transform="translate(-388.191,-269.829)"
             id="g302"><text
               id="text304"
               style="font-variant:normal;font-weight:normal;font-size:10.47280025px;font-family:CharterBT;-inkscape-font-specification:CharterBT-Roman;writing-mode:lr-tb;fill:#ff0000;fill-opacity:1;fill-rule:nonzero;stroke:none"
               transform="matrix(1,0,0,-1,388.191,269.829)"><tspan
                 id="tspan306"
                 sodipodi:role="line"
                 y="0"
                 x="0 3.4979153 8.8076248">tan</tspan></text>
<text
               id="text308"
               style="font-variant:normal;font-size:10.47280025px;font-family:MathDesign-CH-Regular-Italic-MathItalic;-inkscape-font-specification:MathDesign-CH-Regular-Italic-MathItalic-10;writing-mode:lr-tb;fill:#ff0000;fill-opacity:1;fill-rule:nonzero;stroke:none"
               transform="matrix(1,0,0,-1,404.408,269.829)"><tspan
                 id="tspan310"
                 y="0"
                 x="0">α</tspan></text>
<g
               transform="translate(388.191,269.829)"
               id="g312" /></g></g><g
           transform="translate(-387.093,-268.731)"
           id="g314" /></g></g><g
       id="g318" /><g
       transform="translate(382.564,230.468)"
       id="g320"><g
         id="g322"><g
           transform="translate(-383.662,-231.566)"
           id="g324"><text
             id="text326"
             style="font-variant:normal;font-size:10.47280025px;font-family:MathDesign-CH-Regular-Italic-MathItalic;-inkscape-font-specification:MathDesign-CH-Regular-Italic-MathItalic-10;writing-mode:lr-tb;fill:#008000;fill-opacity:1;fill-rule:nonzero;stroke:none"
             transform="matrix(1,0,0,-1,383.662,231.566)"><tspan
               id="tspan328"
               y="0"
               x="0">α</tspan></text>
<g
             transform="translate(383.662,231.566)"
             id="g330" /></g></g><g
         transform="translate(-382.564,-230.468)"
         id="g332" /></g><path
       style="fill:none;fill-rule:evenodd;stroke:#000000;stroke-width:2.48000002;stroke-linecap:butt;stroke-linejoin:miter;stroke-miterlimit:4;stroke-dasharray:2.48, 4.96;stroke-dashoffset:7.44000053;stroke-opacity:1"
       d="m 78.287621,484.16885 0,-489.3967593"
       id="path5200"
       inkscape:connector-curvature="0" /><path
       style="fill:none;fill-rule:evenodd;stroke:#000000;stroke-width:2.48000002;stroke-linecap:butt;stroke-linejoin:miter;stroke-miterlimit:4;stroke-dasharray:2.48, 4.96;stroke-dashoffset:7.44000053;stroke-opacity:1"
       d="m 499.99573,484.16886 0,-489.3967726"
       id="path5200-3"
       inkscape:connector-curvature="0" /><flowRoot
       xml:space="preserve"
       id="flowRoot5217"
       style="fill:black;stroke:none;stroke-opacity:1;stroke-width:1px;stroke-linejoin:miter;stroke-linecap:butt;fill-opacity:1;font-family:sans-serif;font-style:normal;font-weight:normal;font-size:40px;line-height:125%;letter-spacing:0px;word-spacing:0px"><flowRegion
         id="flowRegion5219"><rect
           id="rect5221"
           width="78.726799"
           height="89.051628"
           x="589.80573"
           y="317.58923" /></flowRegion><flowPara
         id="flowPara5223"></flowPara></flowRoot></g></svg>